<svg width="32" height="32" viewBox="0 0 32 32" fill="none" xmlns="http://www.w3.org/2000/svg">
<g opacity="0.5" clip-path="url(#clip0_13_257)">
<path d="M30.6 0H1.4C0.6 0 0 0.6 0 1.4V30.8C0 31.4 0.6 32 1.4 32H30.8C31.6 32 32.2 31.4 32.2 30.6V1.4C32 0.6 31.4 0 30.6 0ZM9.4 27.2H4.8V12H9.6V27.2H9.4ZM7.2 10C5.6 10 4.4 8.6 4.4 7.2C4.4 5.6 5.6 4.4 7.2 4.4C8.8 4.4 10 5.6 10 7.2C9.8 8.6 8.6 10 7.2 10ZM27.2 27.2H22.4V19.8C22.4 18 22.4 15.8 20 15.8C17.6 15.8 17.2 17.8 17.2 19.8V27.4H12.4V12H17V14C17.6 12.8 19.2 11.6 21.4 11.6C26.2 11.6 27 14.8 27 18.8V27.2H27.2Z" fill="white"/>
</g>
<defs>
<clipPath id="clip0_13_257">
<rect width="32" height="32" fill="white"/>
</clipPath>
</defs>
</svg>
