<svg width="617" height="80" viewBox="0 0 617 80" fill="none" xmlns="http://www.w3.org/2000/svg">
<g clip-path="url(#clip0_13_209)">
<path d="M606.036 50.639C612.091 50.639 617 45.7305 617 39.6755C617 33.6205 612.091 28.7119 606.036 28.7119C599.981 28.7119 595.073 33.6205 595.073 39.6755C595.073 45.7305 599.981 50.639 606.036 50.639Z" fill="white"/>
<path d="M10.9641 50.639C17.0191 50.639 21.9277 45.7305 21.9277 39.6755C21.9277 33.6205 17.0191 28.7119 10.9641 28.7119C4.9091 28.7119 0.000549316 33.6205 0.000549316 39.6755C0.000549316 45.7305 4.9091 50.639 10.9641 50.639Z" fill="white"/>
<path d="M506.634 21.9801C505.002 10.0891 498.552 1.06006 481.139 1.06006H455.725L459.151 5.3529V73.998L455.725 78.2707H481.139C498.552 78.2707 505.002 69.161 506.634 57.3507C507.163 51.4747 507.365 45.5739 507.239 39.6755C507.365 33.7704 507.163 27.8628 506.634 21.9801ZM493.977 55.8996C493.615 61.8249 490.188 66.3394 481.603 66.3394H472.05V12.9913H481.683C490.269 12.9913 493.776 17.5059 494.058 23.4312C494.239 26.5349 494.36 33.0851 494.36 39.6755C494.36 46.2659 494.159 52.7958 493.977 55.8996Z" fill="white"/>
<path d="M371.703 5.35339L375.129 1.06055H355.378L358.804 5.35339V33.6902H336.896V5.35339L340.323 1.06055H320.572L323.998 5.35339V73.9985L320.572 78.2712H340.323L336.896 73.9985V45.6416H358.804V73.9985L355.378 78.2712H375.129L371.703 73.9985V5.35339Z" fill="white"/>
<path d="M147.125 1.06055H133.239L110.626 73.9985L106.595 78.2712H127.575L124.129 73.9985L129.087 57.5729H151.156L156.134 73.9985L152.687 78.2712H173.728L169.698 73.9985L147.125 1.06055ZM132.815 45.6416L140.232 21.1543L147.649 45.6416H132.815Z" fill="white"/>
<path d="M213.552 33.7098L236.73 5.3529L242.01 1.06006H216.757L220.203 5.3529L198.195 33.5889V5.3529L201.621 1.06006H181.87L185.296 5.3529V73.998L181.87 78.2707H201.621L198.195 73.998V52.5137L205.511 43.5652L222.36 73.998L218.934 78.2707H241.889L237.173 73.998L213.552 33.7098Z" fill="white"/>
<path d="M95.0063 5.35339L98.4325 1.06055H78.6814L82.1076 5.35339V33.6902H60.2V5.35339L63.6262 1.06055H43.8751L47.3013 5.35339V73.9985L43.8751 78.2712H63.6262L60.2 73.9985V45.6416H82.1076V73.9985L78.6814 78.2712H98.4325L95.0063 73.9985V5.35339Z" fill="white"/>
<path d="M572.519 20.7104C571.751 14.9771 568.928 9.71747 564.574 5.90847C560.221 2.09947 554.633 0 548.848 0C543.064 0 537.476 2.09947 533.122 5.90847C528.769 9.71747 525.945 14.9771 525.177 20.7104C524.976 22.3026 524.572 24.7413 524.572 39.6755C524.572 54.6098 524.976 57.0484 525.177 58.6204C525.945 64.3538 528.769 69.6134 533.122 73.4224C537.476 77.2314 543.064 79.3309 548.848 79.3309C554.633 79.3309 560.221 77.2314 564.574 73.4224C568.928 69.6134 571.751 64.3538 572.519 58.6204C572.741 57.0484 573.144 54.5896 573.144 39.6755C573.144 24.7614 572.741 22.3026 572.519 20.7104ZM559.802 56.988C559.681 59.8118 558.474 62.4797 556.433 64.435C554.392 66.3903 551.675 67.4819 548.848 67.4819C546.022 67.4819 543.304 66.3903 541.263 64.435C539.223 62.4797 538.016 59.8118 537.894 56.988C537.673 52.8362 537.552 46.2256 537.572 39.5949C537.592 32.9642 537.572 26.3536 537.894 22.1817C538.016 19.3579 539.223 16.6899 541.263 14.7346C543.304 12.7793 546.022 11.6878 548.848 11.6878C551.675 11.6878 554.392 12.7793 556.433 14.7346C558.474 16.6899 559.681 19.3579 559.802 22.1817C560.044 26.3536 560.145 32.944 560.145 39.5949C560.145 46.2458 560.044 52.9168 559.802 57.0686V56.988Z" fill="white"/>
<path d="M439.058 20.7104C438.29 14.9771 435.467 9.71747 431.113 5.90847C426.76 2.09947 421.172 0 415.387 0C409.603 0 404.015 2.09947 399.661 5.90847C395.308 9.71747 392.484 14.9771 391.716 20.7104C391.515 22.3026 391.111 24.7413 391.111 39.6755C391.111 54.6098 391.515 57.0484 391.716 58.6204C392.484 64.3538 395.308 69.6134 399.661 73.4224C404.015 77.2314 409.603 79.3309 415.387 79.3309C421.172 79.3309 426.76 77.2314 431.113 73.4224C435.467 69.6134 438.29 64.3538 439.058 58.6204C439.28 57.0484 439.683 54.5896 439.683 39.6755C439.683 24.7614 439.361 22.3026 439.058 20.7104ZM426.341 56.988C426.22 59.8118 425.013 62.4797 422.972 64.435C420.931 66.3903 418.214 67.4819 415.387 67.4819C412.561 67.4819 409.843 66.3903 407.803 64.435C405.762 62.4797 404.555 59.8118 404.433 56.988C404.212 52.8362 404.091 46.2256 404.111 39.5949C404.131 32.9642 404.212 26.3536 404.433 22.1817C404.555 19.3579 405.762 16.6899 407.803 14.7346C409.843 12.7793 412.561 11.6878 415.387 11.6878C418.214 11.6878 420.931 12.7793 422.972 14.7346C425.013 16.6899 426.22 19.3579 426.341 22.1817C426.583 26.3536 426.684 32.944 426.684 39.5949C426.684 46.2458 426.583 52.9168 426.341 57.0686V56.988Z" fill="white"/>
<path d="M286.047 1.06006L289.473 5.3529V53.1385C289.473 59.0235 288.989 61.0994 286.772 63.6791C285.736 64.8443 284.465 65.7768 283.043 66.4155C281.62 67.0541 280.079 67.3842 278.519 67.3842C276.96 67.3842 275.418 67.0541 273.996 66.4155C272.573 65.7768 271.302 64.8443 270.266 63.6791C268.049 61.0994 267.565 59.0235 267.565 53.1385V5.3529L270.992 1.06006H251.241L254.667 5.3529V55.4764C254.667 68.2743 263.514 79.3188 278.529 79.3188C293.544 79.3188 302.311 68.2743 302.311 55.4764V5.3529L305.737 1.06006H286.047Z" fill="white"/>
</g>
<defs>
<clipPath id="clip0_13_209">
<rect width="617" height="79.3309" fill="white"/>
</clipPath>
</defs>
</svg>
