<svg width="24" height="24" viewBox="0 0 24 24" fill="none" xmlns="http://www.w3.org/2000/svg">
<path d="M15.5293 5.22047C15.6698 5.36109 15.7487 5.55172 15.7487 5.75047C15.7487 5.94922 15.6698 6.13984 15.5293 6.28047L9.81034 12.0005L15.5293 17.7205C15.5989 17.7901 15.6542 17.8727 15.6918 17.9636C15.7295 18.0546 15.7489 18.152 15.7489 18.2505C15.7489 18.3489 15.7295 18.4464 15.6918 18.5373C15.6542 18.6282 15.5989 18.7109 15.5293 18.7805C15.4597 18.8501 15.3771 18.9053 15.2862 18.9429C15.1952 18.9806 15.0978 19 14.9993 19C14.9009 19 14.8034 18.9806 14.7125 18.9429C14.6216 18.9053 14.5389 18.8501 14.4693 18.7805L8.21934 12.5305C8.07889 12.3898 8 12.1992 8 12.0005C8 11.8017 8.07889 11.6111 8.21934 11.4705L14.4693 5.22047C14.61 5.08002 14.8006 5.00113 14.9993 5.00113C15.1981 5.00113 15.3887 5.08002 15.5293 5.22047Z" fill="url(#paint0_linear_2004_12487)"/>
<defs>
<linearGradient id="paint0_linear_2004_12487" x1="11.8744" y1="19" x2="11.8744" y2="5.00113" gradientUnits="userSpaceOnUse">
<stop stop-color="#DD1940"/>
<stop offset="1" stop-color="#92035F"/>
</linearGradient>
</defs>
</svg>
