<svg width="24" height="24" viewBox="0 0 24 24" fill="none" xmlns="http://www.w3.org/2000/svg">
<path d="M20.9999 7.99998H2.99991M7.99991 4.99998V2.99998M15.9999 4.99997V2.99997M4.99991 3.99998H4.89991C3.85057 3.99998 2.99991 4.85064 2.99991 5.89998V18C2.99991 19.1045 3.89534 20 4.99991 20H18.9999C20.1045 20 20.9999 19.1045 20.9999 18V5.89998C20.9999 4.85064 20.1492 3.99998 19.0999 3.99998H18.9999M10.9999 3.99998H12.9999M15.253 12.1109L11.8801 16.3122C11.5074 16.7764 10.8142 16.8143 10.3932 16.3933L8.99991 15" stroke="url(#paint0_linear_2004_12531)" stroke-width="1.2" stroke-linecap="round" stroke-linejoin="round"/>
<defs>
<linearGradient id="paint0_linear_2004_12531" x1="2.99991" y1="11.5" x2="20.9999" y2="11.5" gradientUnits="userSpaceOnUse">
<stop stop-color="#DD1940"/>
<stop offset="1" stop-color="#92035F"/>
</linearGradient>
</defs>
</svg>
