<svg width="24" height="24" viewBox="0 0 24 24" fill="none" xmlns="http://www.w3.org/2000/svg">
<path d="M3.00006 10C3.00006 8.89543 3.89549 8 5.00006 8H6.16673C6.97413 8 7.70234 7.51452 8.01288 6.76923L8.23724 6.23077C8.54778 5.48548 9.27599 5 10.0834 5H13.9167C14.7241 5 15.4523 5.48548 15.7629 6.23077L15.9872 6.76923C16.2978 7.51452 17.026 8 17.8334 8H19.0001C20.1046 8 21.0001 8.89543 21.0001 10V17C21.0001 18.1046 20.1046 19 19.0001 19H5.00006C3.89549 19 3.00006 18.1046 3.00006 17V10Z" stroke="url(#paint0_linear_2004_12510)" stroke-width="1.2" stroke-linecap="round" stroke-linejoin="round"/>
<path d="M15.0001 13C15.0001 14.6569 13.6569 16 12.0001 16C10.3432 16 9.00006 14.6569 9.00006 13C9.00006 11.3431 10.3432 10 12.0001 10C13.6569 10 15.0001 11.3431 15.0001 13Z" stroke="url(#paint1_linear_2004_12510)" stroke-width="1.2" stroke-linecap="round" stroke-linejoin="round"/>
<defs>
<linearGradient id="paint0_linear_2004_12510" x1="3.00006" y1="12" x2="21.0001" y2="12" gradientUnits="userSpaceOnUse">
<stop stop-color="#DD1940"/>
<stop offset="1" stop-color="#92035F"/>
</linearGradient>
<linearGradient id="paint1_linear_2004_12510" x1="3.00006" y1="12" x2="21.0001" y2="12" gradientUnits="userSpaceOnUse">
<stop stop-color="#DD1940"/>
<stop offset="1" stop-color="#92035F"/>
</linearGradient>
</defs>
</svg>
