<svg width="24" height="24" viewBox="0 0 24 24" fill="none" xmlns="http://www.w3.org/2000/svg">
<path d="M4.6388 16.25C6.98601 20.3155 12.1845 21.7085 16.25 19.3612C18.1237 18.2795 19.4297 16.5921 20.0635 14.6892C20.1535 14.4192 19.9778 14.1389 19.6987 14.0836L17.1437 13.577C16.6479 13.4787 16.1669 13.7734 15.9187 14.2137C15.5364 14.8919 14.973 15.4797 14.25 15.8971C12.0977 17.1398 9.34554 16.4024 8.1029 14.25C6.86026 12.0977 7.5977 9.34556 9.75002 8.10292C9.79506 8.07691 9.84036 8.05178 9.88591 8.0275C10.3195 7.79639 10.6206 7.34162 10.5511 6.85521L10.1752 4.22565C10.1358 3.94937 9.86805 3.76476 9.60038 3.84375C8.96759 4.03048 8.3466 4.29438 7.75001 4.63882C3.68453 6.98603 2.29159 12.1845 4.6388 16.25Z" stroke="url(#paint0_linear_2004_12528)" stroke-width="1.2" stroke-linecap="round" stroke-linejoin="round"/>
<path d="M16.2018 10.3873C16.1183 10.1705 16.0169 9.9575 15.8971 9.75003C15.3516 8.80509 14.515 8.13286 13.566 7.78119C13.0875 7.60386 12.7183 7.16849 12.7429 6.65873L12.8418 4.60486C12.8695 4.0305 13.377 3.59249 13.9369 3.72363C16.1432 4.24041 18.1388 5.63281 19.3612 7.75003C19.8009 8.51162 20.1094 9.31296 20.2936 10.1279C20.4243 10.7058 19.9513 11.2155 19.3588 11.209L17.2474 11.186C16.7697 11.1808 16.3735 10.833 16.2018 10.3873Z" stroke="url(#paint1_linear_2004_12528)" stroke-width="1.2" stroke-linecap="round" stroke-linejoin="round"/>
<defs>
<linearGradient id="paint0_linear_2004_12528" x1="3.4986" y1="12.1009" x2="20.3155" y2="12.1009" gradientUnits="userSpaceOnUse">
<stop stop-color="#DD1940"/>
<stop offset="1" stop-color="#92035F"/>
</linearGradient>
<linearGradient id="paint1_linear_2004_12528" x1="3.4986" y1="12.1009" x2="20.3155" y2="12.1009" gradientUnits="userSpaceOnUse">
<stop stop-color="#DD1940"/>
<stop offset="1" stop-color="#92035F"/>
</linearGradient>
</defs>
</svg>
