<svg width="24" height="24" viewBox="0 0 24 24" fill="none" xmlns="http://www.w3.org/2000/svg">
<path d="M16.8048 10.7073L16.5133 11.4653C15.6103 13.813 12.3014 13.848 11.349 11.5199C11.348 11.5176 11.3471 11.5152 11.3461 11.5128M16.8048 10.7073L18.9999 5M16.8048 10.7073L15.8614 9.29226C15.021 8.03164 13.1387 8.12688 12.4298 9.46588L11.3461 11.5128M16.8048 10.7073L18.9999 14M11.3461 11.5128C10.6969 9.94246 8.44892 10.0029 7.88667 11.6093L5.99994 17L7.98853 15.8637C8.97578 15.2995 9.7824 14.4665 10.3144 13.4615L11.3461 11.5128ZM5.99994 18C5.99994 18.5523 5.55222 19 4.99994 19C4.44765 19 3.99994 18.5523 3.99994 18C3.99994 17.4477 4.44765 17 4.99994 17C5.55222 17 5.99994 17.4477 5.99994 18Z" stroke="url(#paint0_linear_2004_12520)" stroke-width="1.2" stroke-linecap="round" stroke-linejoin="round"/>
<defs>
<linearGradient id="paint0_linear_2004_12520" x1="3.99994" y1="12" x2="18.9999" y2="12" gradientUnits="userSpaceOnUse">
<stop stop-color="#DD1940"/>
<stop offset="1" stop-color="#92035F"/>
</linearGradient>
</defs>
</svg>
