<svg width="24" height="24" viewBox="0 0 24 24" fill="none" xmlns="http://www.w3.org/2000/svg">
<path d="M21.3975 7.14751L9.39751 19.1475C9.29204 19.2528 9.14907 19.312 9.00001 19.312C8.85094 19.312 8.70798 19.2528 8.60251 19.1475L3.35251 13.8975C3.25315 13.7909 3.19905 13.6498 3.20163 13.5041C3.2042 13.3584 3.26323 13.2194 3.36629 13.1163C3.46935 13.0132 3.60839 12.9542 3.75412 12.9516C3.89984 12.9491 4.04088 13.0031 4.14751 13.1025L9.00001 17.9541L20.6025 6.35251C20.7091 6.25315 20.8502 6.19905 20.9959 6.20163C21.1416 6.2042 21.2807 6.26323 21.3837 6.36629C21.4868 6.46935 21.5458 6.60839 21.5484 6.75412C21.551 6.89984 21.4969 7.04088 21.3975 7.14751Z" fill="url(#paint0_linear_2004_12485)"/>
<path fill-rule="evenodd" clip-rule="evenodd" d="M21.5743 7.32428L9.57428 19.3243C9.42194 19.4764 9.21532 19.562 9.00001 19.562C8.78469 19.562 8.57819 19.4766 8.42584 19.3244L3.16949 14.068C3.02597 13.914 2.94795 13.7102 2.95166 13.4997C2.95538 13.2892 3.04065 13.0884 3.18951 12.9395C3.33838 12.7907 3.53921 12.7054 3.7497 12.7017C3.9602 12.698 4.16391 12.7761 4.31794 12.9196L4.32438 12.9256L9 17.6005L20.432 6.16949C20.586 6.02597 20.7898 5.94795 21.0003 5.95166C21.2108 5.95538 21.4116 6.04065 21.5605 6.18951C21.7094 6.33838 21.7946 6.53921 21.7983 6.74971C21.8021 6.9602 21.7239 7.16391 21.5804 7.31794L21.5743 7.32428ZM20.6025 6.35251C20.7091 6.25315 20.8502 6.19905 20.9959 6.20163C21.1416 6.2042 21.2807 6.26323 21.3837 6.36629C21.4868 6.46935 21.5458 6.60839 21.5484 6.75412C21.551 6.89984 21.4969 7.04088 21.3975 7.14751L9.39751 19.1475C9.29204 19.2528 9.14907 19.312 9.00001 19.312C8.85094 19.312 8.70798 19.2528 8.60251 19.1475L3.35251 13.8975C3.25315 13.7909 3.19905 13.6498 3.20163 13.5041C3.2042 13.3584 3.26323 13.2194 3.36629 13.1163C3.46935 13.0132 3.60839 12.9542 3.75412 12.9516C3.89984 12.9491 4.04088 13.0031 4.14751 13.1025L9.00001 17.9541L20.6025 6.35251Z" fill="url(#paint1_linear_2004_12485)"/>
<defs>
<linearGradient id="paint0_linear_2004_12485" x1="2.95154" y1="12.7568" x2="21.7985" y2="12.7568" gradientUnits="userSpaceOnUse">
<stop stop-color="#DD1940"/>
<stop offset="1" stop-color="#92035F"/>
</linearGradient>
<linearGradient id="paint1_linear_2004_12485" x1="2.95154" y1="12.7568" x2="21.7985" y2="12.7568" gradientUnits="userSpaceOnUse">
<stop stop-color="#DD1940"/>
<stop offset="1" stop-color="#92035F"/>
</linearGradient>
</defs>
</svg>
