<svg width="24" height="24" viewBox="0 0 24 24" fill="none" xmlns="http://www.w3.org/2000/svg">
<path d="M4.79801 15.0999C3.75905 15.4033 3.00006 16.363 3.00006 17.5C3.00006 18.8807 4.11935 20 5.50006 20C6.31777 20 7.04379 19.6074 7.49991 19.0004M4.79801 15.0999C5.02073 15.0349 5.25632 15 5.50006 15C6.88077 15 8.00006 16.1193 8.00006 17.5C8.00006 18.063 7.81396 18.5825 7.49991 19.0004M4.79801 15.0999C4.60405 14.4336 4.50006 13.7289 4.50006 13C4.50006 9.73406 6.58759 6.95568 9.50112 5.92639M7.49991 19.0004C8.75343 19.942 10.3116 20.5 12.0001 20.5C13.6885 20.5 15.2467 19.942 16.5002 19.0004M9.50112 5.92639C9.50042 5.95084 9.50006 5.97538 9.50006 6C9.50006 7.38071 10.6193 8.5 12.0001 8.5C13.3808 8.5 14.5001 7.38071 14.5001 6C14.5001 5.97538 14.4997 5.95084 14.499 5.92639M9.50112 5.92639C9.54006 4.57973 10.644 3.5 12.0001 3.5C13.3561 3.5 14.4601 4.57972 14.499 5.92639M14.499 5.92639C17.4125 6.95568 19.5001 9.73406 19.5001 13C19.5001 13.7289 19.3961 14.4336 19.2021 15.0999M19.2021 15.0999C18.9794 15.0349 18.7438 15 18.5001 15C17.1193 15 16.0001 16.1193 16.0001 17.5C16.0001 18.063 16.1862 18.5825 16.5002 19.0004M19.2021 15.0999C20.2411 15.4033 21.0001 16.363 21.0001 17.5C21.0001 18.8807 19.8808 20 18.5001 20C17.6823 20 16.9563 19.6074 16.5002 19.0004" stroke="url(#paint0_linear_2004_12552)" stroke-width="1.2" stroke-linecap="round" stroke-linejoin="round"/>
<defs>
<linearGradient id="paint0_linear_2004_12552" x1="3.00006" y1="12" x2="21.0001" y2="12" gradientUnits="userSpaceOnUse">
<stop stop-color="#DD1940"/>
<stop offset="1" stop-color="#92035F"/>
</linearGradient>
</defs>
</svg>
