<svg width="24" height="24" viewBox="0 0 24 24" fill="none" xmlns="http://www.w3.org/2000/svg">
<path d="M6.18661 16.549C6.32639 16.1667 6.16397 15.7525 5.833 15.5155C5.67971 15.4058 5.52841 15.2941 5.38168 15.1759C4.54706 14.5102 3.85376 13.714 3.429 12.702C2.73923 11.0614 2.89461 9.47781 3.79886 7.97203C4.73683 6.41022 6.129 5.4331 7.75965 4.81115C10.4626 3.77943 13.197 3.72838 15.9302 4.67845C17.5291 5.23405 18.9227 6.12578 19.9556 7.54833C21.4364 9.59 21.333 12.2002 19.706 14.1353C18.3876 15.703 16.6825 16.5546 14.7707 17.0235C13.7328 17.2784 11.0473 16.8427 10.3564 17.4274C8.90094 18.6976 7.23103 19.501 5.3761 19.9065C5.20735 19.9429 5.03438 19.9663 4.8635 19.9918C4.64694 20.0246 4.46975 19.9626 4.35865 19.7526C4.24826 19.5426 4.28833 19.3516 4.42615 19.1781C4.58646 18.9768 4.7496 18.7771 4.92467 18.5918C5.47921 18.0077 5.90798 17.3111 6.18661 16.549Z" stroke="url(#paint0_linear_2004_12508)" stroke-width="1.2" stroke-linecap="round" stroke-linejoin="round"/>
<defs>
<linearGradient id="paint0_linear_2004_12508" x1="3" y1="12" x2="21" y2="12" gradientUnits="userSpaceOnUse">
<stop stop-color="#DD1940"/>
<stop offset="1" stop-color="#92035F"/>
</linearGradient>
</defs>
</svg>
