<svg width="24" height="24" viewBox="0 0 24 24" fill="none" xmlns="http://www.w3.org/2000/svg">
<path d="M13 4.04239C11.246 3.89017 9.49633 4.14822 7.75965 4.81112C6.129 5.43307 4.73683 6.41019 3.79886 7.972C2.89461 9.47778 2.73923 11.0614 3.429 12.7019C3.85376 13.714 4.54706 14.5102 5.38168 15.1759C5.52841 15.294 5.67971 15.4057 5.833 15.5155C6.16397 15.7525 6.32639 16.1667 6.18661 16.549C5.90798 17.3111 5.47921 18.0076 4.92467 18.5918C4.7496 18.777 4.58646 18.9768 4.42615 19.178C4.28833 19.3516 4.24826 19.5426 4.35865 19.7526C4.46975 19.9626 4.64694 20.0246 4.8635 19.9917C5.03438 19.9662 5.20735 19.9429 5.3761 19.9064C7.23103 19.501 8.90094 18.6976 10.3564 17.4274C11.0473 16.8426 13.7328 17.2784 14.7707 17.0235C16.6825 16.5546 18.3876 15.7029 19.706 14.1353C20.4916 13.2009 20.922 12.1092 20.9903 11M20.5 6C20.5 7.38071 19.3807 8.5 18 8.5C16.6193 8.5 15.5 7.38071 15.5 6C15.5 4.61929 16.6193 3.5 18 3.5C19.3807 3.5 20.5 4.61929 20.5 6Z" stroke="url(#paint0_linear_2004_12509)" stroke-width="1.2" stroke-linecap="round" stroke-linejoin="round"/>
<defs>
<linearGradient id="paint0_linear_2004_12509" x1="3" y1="11.75" x2="20.9903" y2="11.75" gradientUnits="userSpaceOnUse">
<stop stop-color="#DD1940"/>
<stop offset="1" stop-color="#92035F"/>
</linearGradient>
</defs>
</svg>
