<svg width="24" height="24" viewBox="0 0 24 24" fill="none" xmlns="http://www.w3.org/2000/svg">
<path d="M8.93463 16.6015C9.88679 17.7772 11.1183 18.4159 12.499 18.7676C13.2486 18.9588 15.1881 18.632 15.6871 19.0706C16.7383 20.0232 17.9443 20.6258 19.284 20.9298C19.4059 20.9572 19.5308 20.9747 19.6542 20.9938C19.8106 21.0184 19.9386 20.9719 20.0188 20.8144C20.0985 20.6569 20.0696 20.5137 19.9701 20.3835C19.8543 20.2326 19.7365 20.0828 19.61 19.9439C19.2428 19.5421 18.9519 19.0695 18.751 18.5531C18.6069 18.1828 18.7678 17.7814 19.083 17.5393C19.1496 17.4881 19.2154 17.4359 19.28 17.3819C19.8827 16.8827 20.3835 16.2855 20.6902 15.5265C21.1884 14.296 21.0762 13.1083 20.4231 11.979C19.911 11.0935 19.2115 10.4587 18.3918 10M4.72016 11.3819C4.78474 11.4359 4.85055 11.4881 4.91716 11.5393C5.2323 11.7814 5.39323 12.1828 5.24912 12.5531C5.0482 13.0695 4.75734 13.5421 4.3901 13.9439C4.26366 14.0828 4.14584 14.2326 4.03006 14.3835C3.93053 14.5137 3.90158 14.657 3.98131 14.8144C4.06154 14.9719 4.18952 15.0184 4.34592 14.9938C4.46934 14.9747 4.59426 14.9572 4.71613 14.9298C6.05581 14.6258 7.26185 14.0232 8.31304 13.0706C8.81202 12.632 10.7515 12.9588 11.5011 12.7676C12.8818 12.4159 14.1133 11.7772 15.0655 10.6015C16.2406 9.15016 16.3152 7.19248 15.2458 5.66122C14.4998 4.59431 13.4933 3.92552 12.3385 3.50881C10.3646 2.79626 8.3897 2.83455 6.43759 3.60834C5.25989 4.0748 4.25444 4.80764 3.57701 5.979C2.92394 7.10833 2.81173 8.29603 3.3099 9.52645C3.61666 10.2855 4.11738 10.8827 4.72016 11.3819Z" stroke="url(#paint0_linear_2004_12507)" stroke-width="1.2" stroke-linecap="round" stroke-linejoin="round"/>
<defs>
<linearGradient id="paint0_linear_2004_12507" x1="3.00006" y1="12" x2="21.0001" y2="12" gradientUnits="userSpaceOnUse">
<stop stop-color="#DD1940"/>
<stop offset="1" stop-color="#92035F"/>
</linearGradient>
</defs>
</svg>
