<svg width="24" height="24" viewBox="0 0 24 24" fill="none" xmlns="http://www.w3.org/2000/svg">
<path d="M21.0003 12C21.0003 16.9706 16.9708 21 12.0002 21C7.02968 21 3.00024 16.9706 3.00024 12C3.00024 7.02944 7.02968 3 12.0002 3C16.9708 3 21.0003 7.02944 21.0003 12Z" stroke="url(#paint0_linear_2004_12566)" stroke-width="1.2" stroke-linecap="round" stroke-linejoin="round"/>
<path d="M11.0002 12V16C11.0002 16.5523 11.448 17 12.0002 17C12.5525 17 13.0002 16.5523 13.0002 16V12C13.0002 11.4477 12.5525 11 12.0002 11C11.448 11 11.0002 11.4477 11.0002 12Z" stroke="url(#paint1_linear_2004_12566)" stroke-width="1.2" stroke-linecap="round" stroke-linejoin="round"/>
<path d="M13.0002 8.00001C13.0002 7.44773 12.5525 7.00001 12.0002 7.00001C11.448 7.00001 11.0002 7.44773 11.0002 8.00001C11.0002 8.5523 11.448 9.00001 12.0002 9.00001C12.5525 9.00001 13.0002 8.5523 13.0002 8.00001Z" stroke="url(#paint2_linear_2004_12566)" stroke-width="1.2" stroke-linecap="round" stroke-linejoin="round"/>
<defs>
<linearGradient id="paint0_linear_2004_12566" x1="3.00024" y1="12" x2="21.0002" y2="12" gradientUnits="userSpaceOnUse">
<stop stop-color="#DD1940"/>
<stop offset="1" stop-color="#92035F"/>
</linearGradient>
<linearGradient id="paint1_linear_2004_12566" x1="3.00024" y1="12" x2="21.0002" y2="12" gradientUnits="userSpaceOnUse">
<stop stop-color="#DD1940"/>
<stop offset="1" stop-color="#92035F"/>
</linearGradient>
<linearGradient id="paint2_linear_2004_12566" x1="3.00024" y1="12" x2="21.0002" y2="12" gradientUnits="userSpaceOnUse">
<stop stop-color="#DD1940"/>
<stop offset="1" stop-color="#92035F"/>
</linearGradient>
</defs>
</svg>
