<svg width="24" height="24" viewBox="0 0 24 24" fill="none" xmlns="http://www.w3.org/2000/svg">
<path d="M10.2206 4.47027C10.9641 3.02045 13.0364 3.02045 13.7799 4.47027L20.5066 17.5873C21.1891 18.9182 20.2226 20.5 18.7269 20.5H5.27353C3.77783 20.5 2.81138 18.9182 3.49389 17.5873L10.2206 4.47027Z" stroke="url(#paint0_linear_2004_12561)" stroke-width="1.2" stroke-linecap="round" stroke-linejoin="round"/>
<path d="M11.5195 13.3173L10.5497 9.92303C10.2743 8.95931 10.9979 7.99998 12.0002 7.99998C13.0025 7.99998 13.7261 8.95931 13.4508 9.92303L12.481 13.3173C12.3428 13.8008 11.6576 13.8008 11.5195 13.3173Z" stroke="url(#paint1_linear_2004_12561)" stroke-width="1.2" stroke-linecap="round" stroke-linejoin="round"/>
<path d="M13.0002 17C13.0002 17.5523 12.5525 18 12.0002 18C11.4479 18 11.0002 17.5523 11.0002 17C11.0002 16.4477 11.4479 16 12.0002 16C12.5525 16 13.0002 16.4477 13.0002 17Z" stroke="url(#paint2_linear_2004_12561)" stroke-width="1.2" stroke-linecap="round" stroke-linejoin="round"/>
<defs>
<linearGradient id="paint0_linear_2004_12561" x1="3.27087" y1="11.9414" x2="20.7296" y2="11.9414" gradientUnits="userSpaceOnUse">
<stop stop-color="#DD1940"/>
<stop offset="1" stop-color="#92035F"/>
</linearGradient>
<linearGradient id="paint1_linear_2004_12561" x1="3.27087" y1="11.9414" x2="20.7296" y2="11.9414" gradientUnits="userSpaceOnUse">
<stop stop-color="#DD1940"/>
<stop offset="1" stop-color="#92035F"/>
</linearGradient>
<linearGradient id="paint2_linear_2004_12561" x1="3.27087" y1="11.9414" x2="20.7296" y2="11.9414" gradientUnits="userSpaceOnUse">
<stop stop-color="#DD1940"/>
<stop offset="1" stop-color="#92035F"/>
</linearGradient>
</defs>
</svg>
