<svg width="24" height="24" viewBox="0 0 24 24" fill="none" xmlns="http://www.w3.org/2000/svg">
<path d="M7.00003 10.5L4.49994 10.5C3.94766 10.5 3.49994 10.9477 3.49994 11.5V16.5C3.49994 17.0523 3.94765 17.5 4.49994 17.5H7.49994M20.9483 11.6906L18.7816 17.5646C18.4691 18.4118 17.6305 18.9447 16.7312 18.8628C14.7655 18.6839 11.2948 18.362 8.76197 18.0948C7.75535 17.9885 7.00003 17.1368 7.00003 16.1246V11.0523C7.00003 10.5069 7.22277 9.98512 7.61665 9.60788L12.6527 4.78455C12.7223 4.7179 12.7855 4.64492 12.8509 4.57408C13.3887 3.99097 14.2715 3.82868 14.9962 4.19549C15.7655 4.5845 16.1347 5.45628 15.8699 6.25881L14.594 8.93341C14.4357 9.26524 14.6776 9.64869 15.0453 9.64869H19.3126C19.8328 9.64869 20.3238 9.88163 20.6439 10.2806C20.9633 10.6796 21.0764 11.2001 20.9483 11.6906Z" stroke="url(#paint0_linear_2004_12584)" stroke-width="1.2" stroke-linecap="round" stroke-linejoin="round"/>
<defs>
<linearGradient id="paint0_linear_2004_12584" x1="3.49994" y1="11.4356" x2="21" y2="11.4356" gradientUnits="userSpaceOnUse">
<stop stop-color="#DD1940"/>
<stop offset="1" stop-color="#92035F"/>
</linearGradient>
</defs>
</svg>
