<svg width="24" height="24" viewBox="0 0 24 24" fill="none" xmlns="http://www.w3.org/2000/svg">
<path d="M8 11V6.75C8 4.67893 9.67893 3 11.75 3C13.8211 3 15.5 4.67893 15.5 6.75V11M6.5 21H17C18.1046 21 19 20.1046 19 19V13C19 11.8954 18.1046 11 17 11H6.5C5.39543 11 4.5 11.8954 4.5 13V19C4.5 20.1046 5.39543 21 6.5 21ZM14 16C14 17.1046 13.1046 18 12 18C10.8954 18 10 17.1046 10 16C10 14.8954 10.8954 14 12 14C13.1046 14 14 14.8954 14 16Z" stroke="url(#paint0_linear_2004_12536)" stroke-width="1.2" stroke-linecap="round" stroke-linejoin="round"/>
<defs>
<linearGradient id="paint0_linear_2004_12536" x1="4.5" y1="12" x2="19" y2="12" gradientUnits="userSpaceOnUse">
<stop stop-color="#DD1940"/>
<stop offset="1" stop-color="#92035F"/>
</linearGradient>
</defs>
</svg>
