<svg width="24" height="24" viewBox="0 0 24 24" fill="none" xmlns="http://www.w3.org/2000/svg">
<path d="M13 7.50001V7.18148C13 6.32594 11.9955 5.86545 11.3473 6.42387L8.28138 9.0653C8.09987 9.22168 7.86825 9.30769 7.62867 9.30769H5.00003C3.89546 9.30769 3.00003 10.2031 3.00003 11.3077V12.6923C3.00003 13.7969 3.89546 14.6923 5.00003 14.6923H6.00003M13 14.5V16.8185C13 17.6741 11.9955 18.1345 11.3473 17.5761L10.468 16.8185M5.00003 19L19 5M16.3496 15.2376C17.3498 14.5105 18 13.3312 18 12C18 11.2714 17.8052 10.5883 17.4649 9.99999M18.5 17.3621C20.0285 16.078 21 14.1525 21 12C21 10.4399 20.4897 8.999 19.6268 7.83515" stroke="url(#paint0_linear_2004_12498)" stroke-width="1.2" stroke-linecap="round" stroke-linejoin="round"/>
<defs>
<linearGradient id="paint0_linear_2004_12498" x1="3.00003" y1="12" x2="21" y2="12" gradientUnits="userSpaceOnUse">
<stop stop-color="#DD1940"/>
<stop offset="1" stop-color="#92035F"/>
</linearGradient>
</defs>
</svg>
