<svg width="24" height="24" viewBox="0 0 24 24" fill="none" xmlns="http://www.w3.org/2000/svg">
<path d="M12.0002 3C9.4953 3 7.46467 5.06638 7.46467 7.61538C7.46467 8.57589 7.64491 9.35217 7.11251 11.0769C6.91649 11.7119 6.11971 13.0006 5.27896 14.2581C4.36677 15.6225 5.3219 17.5 6.96311 17.5C10.3212 17.5 13.6793 17.5 17.0373 17.5C18.6785 17.5 19.6337 15.6225 18.7215 14.2581C17.8807 13.0006 17.0839 11.7119 16.8879 11.0769C16.3555 9.35217 16.5358 8.57589 16.5358 7.61538C16.5358 5.06638 14.5051 3 12.0002 3ZM12.0002 3V1.5M15.0002 17.5V18C15.0002 19.9882 13.6571 21 12.0002 21C10.3434 21 9.00022 19.9882 9.00022 18V17.5" stroke="url(#paint0_linear_2004_12560)" stroke-width="1.2" stroke-linecap="round" stroke-linejoin="round"/>
<defs>
<linearGradient id="paint0_linear_2004_12560" x1="4.92517" y1="11.25" x2="19.0753" y2="11.25" gradientUnits="userSpaceOnUse">
<stop stop-color="#DD1940"/>
<stop offset="1" stop-color="#92035F"/>
</linearGradient>
</defs>
</svg>
