<svg width="24" height="24" viewBox="0 0 24 24" fill="none" xmlns="http://www.w3.org/2000/svg">
<path fill-rule="evenodd" clip-rule="evenodd" d="M23.2 12C23.2 18.1856 18.1856 23.2 12 23.2C5.81441 23.2 0.8 18.1856 0.8 12C0.8 10.3069 1.1757 8.70148 1.84828 7.26266C1.60089 7.15007 1.37222 7.0035 1.16825 6.82892C0.419348 8.39481 0 10.1484 0 12C0 18.6274 5.37258 24 12 24C18.6274 24 24 18.6274 24 12C24 5.37258 18.6274 0 12 0C9.30995 0 6.82663 0.885149 4.82542 2.38008C5.03701 2.54748 5.22454 2.74395 5.38197 2.96348C7.23608 1.6033 9.52423 0.8 12 0.8C18.1856 0.8 23.2 5.81441 23.2 12Z" fill="url(#paint0_linear_2004_12481)"/>
<circle cx="3.04001" cy="4.80002" r="1.28" fill="url(#paint1_linear_2004_12481)"/>
<rect x="8.48004" y="7.52002" width="2.56" height="8.96" rx="0.64" fill="url(#paint2_linear_2004_12481)"/>
<rect x="12.9601" y="7.52002" width="2.56" height="8.96" rx="0.64" fill="url(#paint3_linear_2004_12481)"/>
<defs>
<linearGradient id="paint0_linear_2004_12481" x1="0" y1="12" x2="24" y2="12" gradientUnits="userSpaceOnUse">
<stop stop-color="#DD1940"/>
<stop offset="1" stop-color="#92035F"/>
</linearGradient>
<linearGradient id="paint1_linear_2004_12481" x1="1.76001" y1="4.80002" x2="4.32001" y2="4.80002" gradientUnits="userSpaceOnUse">
<stop stop-color="#DD1940"/>
<stop offset="1" stop-color="#92035F"/>
</linearGradient>
<linearGradient id="paint2_linear_2004_12481" x1="8.48004" y1="12" x2="11.04" y2="12" gradientUnits="userSpaceOnUse">
<stop stop-color="#DD1940"/>
<stop offset="1" stop-color="#92035F"/>
</linearGradient>
<linearGradient id="paint3_linear_2004_12481" x1="12.9601" y1="12" x2="15.5201" y2="12" gradientUnits="userSpaceOnUse">
<stop stop-color="#DD1940"/>
<stop offset="1" stop-color="#92035F"/>
</linearGradient>
</defs>
</svg>
