<svg width="24" height="24" viewBox="0 0 24 24" fill="none" xmlns="http://www.w3.org/2000/svg">
<path d="M19 10.2647C19 13.1109 15.4774 17.8245 13.43 20.3238C12.6809 21.2382 11.3191 21.2382 10.57 20.3238C8.52261 17.8245 5 13.1109 5 10.2647C5 6.25252 8.13401 3 12 3C15.866 3 19 6.25252 19 10.2647Z" stroke="url(#paint0_linear_2004_12585)" stroke-width="1.2" stroke-linecap="round" stroke-linejoin="round"/>
<path d="M14.6004 10.0001C14.6004 11.436 13.4363 12.6001 12.0004 12.6001C10.5644 12.6001 9.40039 11.436 9.40039 10.0001C9.40039 8.56411 10.5644 7.40005 12.0004 7.40005C13.4363 7.40005 14.6004 8.56411 14.6004 10.0001Z" stroke="url(#paint1_linear_2004_12585)" stroke-width="1.2" stroke-linecap="round" stroke-linejoin="round"/>
<defs>
<linearGradient id="paint0_linear_2004_12585" x1="5" y1="12.0048" x2="19" y2="12.0048" gradientUnits="userSpaceOnUse">
<stop stop-color="#DD1940"/>
<stop offset="1" stop-color="#92035F"/>
</linearGradient>
<linearGradient id="paint1_linear_2004_12585" x1="5" y1="12.0048" x2="19" y2="12.0048" gradientUnits="userSpaceOnUse">
<stop stop-color="#DD1940"/>
<stop offset="1" stop-color="#92035F"/>
</linearGradient>
</defs>
</svg>
