<svg width="24" height="24" viewBox="0 0 24 24" fill="none" xmlns="http://www.w3.org/2000/svg">
<path d="M4 10H20M4 10V19C4 20.1046 4.89543 21 6 21H18C19.1046 21 20 20.1046 20 19V10M4 10C3.44772 10 3 9.55229 3 9V8C3 7.44772 3.44772 7 4 7H20C20.5523 7 21 7.44772 21 8V9C21 9.55229 20.5523 10 20 10M12 7.5V21M9.73193 3.03593C10.2803 3.35254 11.0098 4.53267 11.5325 5.48219C11.8698 6.09499 11.4501 6.82195 10.7507 6.83621C9.66707 6.85831 8.28032 6.81665 7.73193 6.50003C6.77535 5.94775 6.4476 4.72457 6.99988 3.76798C7.55217 2.8114 8.77535 2.48365 9.73193 3.03593ZM14.2319 3.00003C13.6835 3.31665 12.9541 4.49677 12.4314 5.44629C12.0941 6.05909 12.5138 6.78605 13.2131 6.80031C14.2968 6.82241 15.6835 6.78075 16.2319 6.46413C17.1885 5.91185 17.5163 4.68867 16.964 3.73208C16.4117 2.7755 15.1885 2.44775 14.2319 3.00003Z" stroke="url(#paint0_linear_2004_12571)" stroke-width="1.2" stroke-linecap="round" stroke-linejoin="round"/>
<defs>
<linearGradient id="paint0_linear_2004_12571" x1="3" y1="11.8659" x2="21" y2="11.8659" gradientUnits="userSpaceOnUse">
<stop stop-color="#DD1940"/>
<stop offset="1" stop-color="#92035F"/>
</linearGradient>
</defs>
</svg>
