<svg width="24" height="24" viewBox="0 0 24 24" fill="none" xmlns="http://www.w3.org/2000/svg">
<path d="M6.79116 15.199C6.73469 13.209 6.9452 11.2069 7.5979 9.55237C8.57067 7.08662 10.9157 5.47255 13.4761 6.1586C16.0365 6.84466 17.5559 9.47641 16.8699 12.0368C16.4849 13.4735 16.1068 14.7176 16.2491 16.2267M12.2335 10.7946C11.0336 13.5943 11.4336 15.9941 11.8337 17.9939M14.0506 17.1988C13.5072 14.5842 13.8942 13.4103 14.5463 11.4319L14.5517 11.4157C14.8947 10.1355 14.135 8.81964 12.8548 8.47661C11.5746 8.13359 10.2587 8.89331 9.9157 10.1735C9.27239 12.7243 8.78021 14.328 9.18432 16.7989M17.0002 2.99997L19.0002 2.99997C20.1048 2.99997 21.0002 3.8954 21.0002 4.99997V6.99997M17.0002 21H19.0002C20.1048 21 21.0002 20.1045 21.0002 19V17M7.00024 2.99997L5.00024 2.99997C3.89567 2.99997 3.00024 3.8954 3.00024 4.99997L3.00024 6.99997M7.00024 21H5.00024C3.89567 21 3.00024 20.1045 3.00024 19L3.00024 17" stroke="url(#paint0_linear_2004_12557)" stroke-width="1.2" stroke-linecap="round" stroke-linejoin="round"/>
<defs>
<linearGradient id="paint0_linear_2004_12557" x1="3.00024" y1="12" x2="21.0002" y2="12" gradientUnits="userSpaceOnUse">
<stop stop-color="#DD1940"/>
<stop offset="1" stop-color="#92035F"/>
</linearGradient>
</defs>
</svg>
