<svg width="24" height="24" viewBox="0 0 24 24" fill="none" xmlns="http://www.w3.org/2000/svg">
<path d="M16.5002 3.49997H18.5002C19.6047 3.49997 20.5002 4.3954 20.5002 5.49997V7.49997M16.5002 20.5H18.5002C19.6047 20.5 20.5002 19.6045 20.5002 18.5V16.5M7.50018 3.49997H5.50018C4.39561 3.49997 3.50018 4.3954 3.50018 5.49997V7.49997M7.50018 20.5H5.50018C4.39561 20.5 3.50018 19.6045 3.50018 18.5V16.5M7.50018 17.5H9.50018C10.0525 17.5 10.5002 17.0523 10.5002 16.5V14.5C10.5002 13.9477 10.0525 13.5 9.50018 13.5H7.50018C6.9479 13.5 6.50018 13.9477 6.50018 14.5V16.5C6.50018 17.0523 6.9479 17.5 7.50018 17.5ZM14.5002 14C14.5002 14.2761 14.2763 14.5 14.0002 14.5C13.724 14.5 13.5002 14.2761 13.5002 14C13.5002 13.7238 13.724 13.5 14.0002 13.5C14.2763 13.5 14.5002 13.7238 14.5002 14ZM14.5002 17C14.5002 17.2761 14.2763 17.5 14.0002 17.5C13.724 17.5 13.5002 17.2761 13.5002 17C13.5002 16.7238 13.724 16.5 14.0002 16.5C14.2763 16.5 14.5002 16.7238 14.5002 17ZM17.5002 17C17.5002 17.2761 17.2763 17.5 17.0002 17.5C16.724 17.5 16.5002 17.2761 16.5002 17C16.5002 16.7238 16.724 16.5 17.0002 16.5C17.2763 16.5 17.5002 16.7238 17.5002 17ZM17.5002 14C17.5002 14.2761 17.2763 14.5 17.0002 14.5C16.724 14.5 16.5002 14.2761 16.5002 14C16.5002 13.7238 16.724 13.5 17.0002 13.5C17.2763 13.5 17.5002 13.7238 17.5002 14ZM7.50018 10.5H9.50018C10.0525 10.5 10.5002 10.0523 10.5002 9.49997V7.49997C10.5002 6.94768 10.0525 6.49997 9.50018 6.49997H7.50018C6.9479 6.49997 6.50018 6.94768 6.50018 7.49997V9.49997C6.50018 10.0523 6.9479 10.5 7.50018 10.5ZM14.5002 10.5H16.5002C17.0525 10.5 17.5002 10.0523 17.5002 9.49997V7.49997C17.5002 6.94768 17.0525 6.49997 16.5002 6.49997H14.5002C13.9479 6.49997 13.5002 6.94768 13.5002 7.49997V9.49997C13.5002 10.0523 13.9479 10.5 14.5002 10.5Z" stroke="url(#paint0_linear_2004_12558)" stroke-width="1.2" stroke-linecap="round" stroke-linejoin="round"/>
<defs>
<linearGradient id="paint0_linear_2004_12558" x1="3.50018" y1="12" x2="20.5002" y2="12" gradientUnits="userSpaceOnUse">
<stop stop-color="#DD1940"/>
<stop offset="1" stop-color="#92035F"/>
</linearGradient>
</defs>
</svg>
