<svg width="24" height="24" viewBox="0 0 24 24" fill="none" xmlns="http://www.w3.org/2000/svg">
<path d="M12.0106 21H11.7426C10.8557 21 10.1368 20.281 10.1368 19.3942C10.1368 18.8933 9.90308 18.4211 9.50482 18.1174L8.46775 17.3265C7.88011 16.8783 7.08264 16.8213 6.43721 17.1813L6.40189 17.201C5.54481 17.679 4.46301 17.3893 3.95955 16.5469C3.43433 15.6681 3.73937 14.529 4.63351 14.0303L4.67948 14.0047C5.27044 13.6751 5.6367 13.0514 5.6367 12.3747V11.6257C5.6367 10.949 5.27044 10.3254 4.67947 9.99576L4.63351 9.97012C3.73937 9.47143 3.43433 8.33238 3.95955 7.45357C4.46301 6.61119 5.54481 6.32147 6.40189 6.79949L6.53776 6.87527C7.13592 7.20888 7.8642 7.20887 8.46235 6.87524L9.18641 6.47138C9.77316 6.14411 10.1368 5.52488 10.1368 4.85303C10.1368 3.82962 10.9767 2.99997 12.0001 2.99997C13.0235 2.99997 13.8634 3.82961 13.8634 4.85302C13.8634 5.52485 14.227 6.14406 14.8138 6.47133L15.5378 6.87519C16.1359 7.20882 16.8642 7.20884 17.4623 6.87523L17.5982 6.79949C18.4552 6.32147 19.537 6.61119 20.0405 7.45357C20.5657 8.33238 20.2607 9.47143 19.3665 9.97012L19.3205 9.99576C18.7296 10.3254 18.3633 10.949 18.3633 11.6257V12.3747C18.3633 13.0514 18.7296 13.6751 19.3205 14.0047L19.3665 14.0303C20.2607 14.529 20.5657 15.6681 20.0405 16.5469C19.537 17.3893 18.4552 17.679 17.5981 17.201L17.4623 17.1252C16.8642 16.7916 16.1359 16.7916 15.5378 17.1252L14.8138 17.5289C14.2271 17.8562 13.8634 18.4753 13.8634 19.1471C13.8634 20.1704 13.0339 21 12.0106 21Z" stroke="url(#paint0_linear_2004_12538)" stroke-width="1.2" stroke-linecap="round" stroke-linejoin="round"/>
<path d="M15.0002 12C15.0002 13.6568 13.6571 15 12.0002 15C10.3434 15 9.00025 13.6568 9.00025 12C9.00025 10.3431 10.3434 8.99996 12.0002 8.99996C13.6571 8.99996 15.0002 10.3431 15.0002 12Z" stroke="url(#paint1_linear_2004_12538)" stroke-width="1.2" stroke-linecap="round" stroke-linejoin="round"/>
<defs>
<linearGradient id="paint0_linear_2004_12538" x1="3.70215" y1="12" x2="20.2979" y2="12" gradientUnits="userSpaceOnUse">
<stop stop-color="#DD1940"/>
<stop offset="1" stop-color="#92035F"/>
</linearGradient>
<linearGradient id="paint1_linear_2004_12538" x1="3.70215" y1="12" x2="20.2979" y2="12" gradientUnits="userSpaceOnUse">
<stop stop-color="#DD1940"/>
<stop offset="1" stop-color="#92035F"/>
</linearGradient>
</defs>
</svg>
