<svg width="24" height="24" viewBox="0 0 24 24" fill="none" xmlns="http://www.w3.org/2000/svg">
<path d="M19.7669 6.66818C19.5706 6.35037 19.2485 6.11763 18.8709 6.02272C18.4926 5.9278 18.0903 5.97772 17.7517 6.16123C17.1891 6.46565 16.5107 6.4653 15.9483 6.16032L15.3656 5.8443C14.8381 5.55823 14.5095 5.0063 14.5095 4.40622C14.5095 3.64122 13.851 2.99997 13.0367 2.99997H10.9632C10.1489 2.99997 9.49043 3.64122 9.49043 4.40622C9.49043 5.00634 9.16199 5.55833 8.63455 5.84461L8.05251 6.16054C7.49014 6.46578 6.81159 6.46604 6.24898 6.16123C5.91038 5.97772 5.50734 5.92779 5.12904 6.02272C4.75147 6.11764 4.42936 6.35037 4.23307 6.66818L3.19778 8.35287C3.00226 8.67068 2.94906 9.04896 3.0502 9.40333C3.15133 9.75841 3.39854 10.0607 3.73715 10.2443C4.29116 10.545 4.63622 11.1247 4.63641 11.7551L4.63655 12.2449C4.63674 12.8752 4.29185 13.455 3.7379 13.7557C3.39929 13.9399 3.15132 14.2415 3.0502 14.5959C2.94907 14.951 3.00225 15.3293 3.19778 15.6471L4.23457 17.3318C4.43009 17.6496 4.75222 17.8823 5.12979 17.9772C5.50811 18.0721 5.91038 18.0222 6.24973 17.8387C6.81241 17.5343 7.49077 17.5346 8.05312 17.8396L8.63377 18.1546C9.16165 18.4409 9.49042 18.9932 9.49042 19.5937C9.49042 20.3587 10.1489 21 10.9632 21H13.0361C13.8512 21 14.5089 20.3587 14.5089 19.5937C14.5094 18.9931 14.8384 18.4409 15.3664 18.1547L15.9477 17.8395C16.5101 17.5346 17.1884 17.5343 17.7511 17.8387C18.0905 18.0222 18.4928 18.0721 18.8703 17.9772C19.2487 17.8823 19.5708 17.6496 19.7663 17.3318L20.8023 15.6471C20.9979 15.3293 21.0511 14.951 20.9499 14.5966C20.8488 14.2415 20.6016 13.9392 20.263 13.7557C19.709 13.455 19.364 12.8752 19.364 12.2449V11.7551C19.364 11.1247 19.709 10.545 20.263 10.2443C20.6016 10.06 20.8488 9.7584 20.9499 9.40401C21.0511 9.04893 20.9979 8.67066 20.8023 8.35285L19.7669 6.66818Z" stroke="url(#paint0_linear_2004_12537)" stroke-width="1.2" stroke-linecap="round" stroke-linejoin="round"/>
<path d="M15.0001 12C15.0001 13.6568 13.6569 15 12.0001 15C10.3432 15 9.00006 13.6568 9.00006 12C9.00006 10.3431 10.3432 8.99997 12.0001 8.99997C13.6569 8.99997 15.0001 10.3431 15.0001 12Z" stroke="url(#paint1_linear_2004_12537)" stroke-width="1.2" stroke-linecap="round" stroke-linejoin="round"/>
<defs>
<linearGradient id="paint0_linear_2004_12537" x1="3.00006" y1="12" x2="21.0001" y2="12" gradientUnits="userSpaceOnUse">
<stop stop-color="#DD1940"/>
<stop offset="1" stop-color="#92035F"/>
</linearGradient>
<linearGradient id="paint1_linear_2004_12537" x1="3.00006" y1="12" x2="21.0001" y2="12" gradientUnits="userSpaceOnUse">
<stop stop-color="#DD1940"/>
<stop offset="1" stop-color="#92035F"/>
</linearGradient>
</defs>
</svg>
