<svg width="24" height="24" viewBox="0 0 24 24" fill="none" xmlns="http://www.w3.org/2000/svg">
<path d="M9.18592 10.6623L14.8092 7.82815M14.6706 16.5L9.09859 13.5M20.4999 6.50003C20.4999 8.15688 19.1568 9.50003 17.4999 9.50003C15.8431 9.50003 14.4999 8.15688 14.4999 6.50003C14.4999 4.84318 15.8431 3.50003 17.4999 3.50003C19.1568 3.50003 20.4999 4.84318 20.4999 6.50003ZM9.49994 12C9.49994 13.6569 8.15679 15 6.49994 15C4.84308 15 3.49994 13.6569 3.49994 12C3.49994 10.3432 4.84308 9.00003 6.49994 9.00003C8.15679 9.00003 9.49994 10.3432 9.49994 12ZM20.4999 17.5C20.4999 19.1569 19.1568 20.5 17.4999 20.5C15.8431 20.5 14.4999 19.1569 14.4999 17.5C14.4999 15.8432 15.8431 14.5 17.4999 14.5C19.1568 14.5 20.4999 15.8432 20.4999 17.5Z" stroke="url(#paint0_linear_2004_12539)" stroke-width="1.2" stroke-linecap="round" stroke-linejoin="round"/>
<defs>
<linearGradient id="paint0_linear_2004_12539" x1="3.49994" y1="12" x2="20.4999" y2="12" gradientUnits="userSpaceOnUse">
<stop stop-color="#DD1940"/>
<stop offset="1" stop-color="#92035F"/>
</linearGradient>
</defs>
</svg>
