<svg width="24" height="24" viewBox="0 0 24 24" fill="none" xmlns="http://www.w3.org/2000/svg">
<path d="M8.66208 19.5C6.6827 19.5019 4.74401 18.9282 3.07096 17.8463C3.05324 17.8349 3.06317 17.8073 3.08415 17.8095C3.34899 17.8379 3.61512 17.852 3.88144 17.8516C5.52636 17.8543 7.12491 17.2964 8.42584 16.2664C8.44049 16.2548 8.43254 16.2312 8.41386 16.2306C7.66253 16.2044 6.93631 15.9442 6.33233 15.4839C5.72244 15.0191 5.26726 14.3733 5.02831 13.6344C5.02364 13.62 5.03625 13.6059 5.05117 13.6087C5.26922 13.6498 5.49048 13.6705 5.71222 13.6707C6.01375 13.6707 6.31404 13.6331 6.60648 13.5587C6.62681 13.5536 6.62604 13.5246 6.60561 13.5199C5.8018 13.3343 5.08066 12.8785 4.55784 12.2237C4.01761 11.5472 3.72239 10.6999 3.72224 9.82565C3.72224 9.82105 3.72224 9.81653 3.72224 9.81209C3.72224 9.79674 3.73884 9.7871 3.75224 9.79458C4.23721 10.0652 4.77532 10.2204 5.32654 10.2487C5.34651 10.2497 5.3551 10.2239 5.33881 10.2123C4.58642 9.67648 4.05434 8.87256 3.8474 7.95611C3.63753 7.0267 3.77767 6.05075 4.23913 5.22311C4.24604 5.21072 4.26331 5.20938 4.27214 5.22048C5.1957 6.3795 6.34529 7.3282 7.64741 8.00572C8.95033 8.68366 10.377 9.07501 11.8359 9.15481C11.8492 9.15554 11.8594 9.14333 11.8565 9.13036C11.6773 8.32529 11.7595 7.48194 12.0913 6.72888C12.4266 5.96775 12.998 5.34154 13.7166 4.94768C14.4351 4.55382 15.2604 4.41439 16.0643 4.55109C16.8645 4.68715 17.5986 5.08922 18.1537 5.69511C18.1584 5.70031 18.1656 5.70265 18.1725 5.70123C18.9767 5.53606 19.7486 5.23555 20.457 4.81199C20.4728 4.80251 20.492 4.81762 20.4862 4.83515C20.2141 5.66028 19.6739 6.36434 18.9568 6.83003C18.9387 6.84173 18.9489 6.87022 18.9702 6.86731C19.6478 6.7746 20.3098 6.58626 20.9372 6.3076C20.9555 6.29948 20.9732 6.32019 20.9621 6.33686C20.4742 7.07028 19.8662 7.7119 19.1649 8.23328C19.1596 8.23727 19.1565 8.24368 19.1569 8.25036C19.1647 8.40881 19.168 8.5684 19.168 8.72914C19.168 13.7306 15.4514 19.5 8.6574 19.5" stroke="url(#paint0_linear_2004_12553)" stroke-width="1.2" stroke-linecap="round" stroke-linejoin="round"/>
<defs>
<linearGradient id="paint0_linear_2004_12553" x1="3" y1="12" x2="21" y2="12" gradientUnits="userSpaceOnUse">
<stop stop-color="#DD1940"/>
<stop offset="1" stop-color="#92035F"/>
</linearGradient>
</defs>
</svg>
