<svg width="24" height="24" viewBox="0 0 24 24" fill="none" xmlns="http://www.w3.org/2000/svg">
<path d="M20.5124 11.2211C21.2957 10.6515 20.8928 9.41229 19.9243 9.41229H16.1196C15.2468 9.41229 14.4747 8.84628 14.2122 8.01388L12.9537 4.02373C12.6597 3.09146 11.3404 3.09146 11.0463 4.02373L9.78782 8.01388C9.52528 8.84628 8.75326 9.41229 7.88044 9.41229H4.07574C3.10721 9.41229 2.7043 10.6515 3.48765 11.2211L6.87621 13.685C7.60852 14.2174 7.89175 15.1755 7.56672 16.0205L6.09671 19.8424C5.73907 20.7723 6.81254 21.5961 7.61824 21.0101L10.8237 18.6789C11.525 18.1688 12.4751 18.1688 13.1764 18.6789L16.3818 21.0101C17.1875 21.5961 18.261 20.7723 17.9033 19.8424L16.4333 16.0205C16.1083 15.1755 16.3915 14.2174 17.1238 13.685L20.5124 11.2211Z" stroke="url(#paint0_linear_2004_12582)" stroke-width="1.2" stroke-linecap="round" stroke-linejoin="round"/>
<defs>
<linearGradient id="paint0_linear_2004_12582" x1="3.07382" y1="12.2656" x2="20.9262" y2="12.2656" gradientUnits="userSpaceOnUse">
<stop stop-color="#DD1940"/>
<stop offset="1" stop-color="#92035F"/>
</linearGradient>
</defs>
</svg>
