<svg width="24" height="24" viewBox="0 0 24 24" fill="none" xmlns="http://www.w3.org/2000/svg">
<path d="M12.9959 18.4853C12.4101 19.0711 10.2732 17.8839 8.2229 15.8337C6.17265 13.7834 4.98547 11.6465 5.57125 11.0607C5.88399 10.748 6.63884 10.9406 7.58657 11.5M12.9959 18.4853C13.3053 18.1759 13.12 17.4337 12.5742 16.5M12.9959 18.4853C12.561 18.9202 6.82795 20.5606 3.90345 21.3769C3.15659 21.5854 2.4747 20.8978 2.68203 20.1506L2.89103 19.3974M9.71918 19.5533C8.8353 19.3765 8.00167 18.8964 6.5372 17.432C5.07274 15.9675 4.41588 14.9571 4.41588 14.25M6.98547 20.2531C6.45514 20.0763 5.9196 19.8943 5.04092 19.0156C4.16224 18.137 3.98026 17.6014 3.80349 17.0711M9.74987 13.75C11.7499 10.75 16.4999 9.5 18.4999 9.5M9.24987 10.5C10.7499 8.25 9.74987 5.75 8.99987 4.75M12.2499 14.5C14.7499 13.5 16.9999 14.5 18.2499 16.25M18.5 3V3.5M18.5 5.5V6M20 4.5H19.5M17.5 4.5H17M20 17V17.5M20 19.5V20M21.5 18.5H21M19 18.5H18.5M14.4999 6.5C14.4999 7.05228 14.0522 7.5 13.4999 7.5C12.9476 7.5 12.4999 7.05228 12.4999 6.5C12.4999 5.94771 12.9476 5.5 13.4999 5.5C14.0522 5.5 14.4999 5.94771 14.4999 6.5ZM20.9999 13C20.9999 13.5523 20.5522 14 19.9999 14C19.4476 14 18.9999 13.5523 18.9999 13C18.9999 12.4477 19.4476 12 19.9999 12C20.5522 12 20.9999 12.4477 20.9999 13ZM7.99997 2.5C7.99997 2.77614 7.77611 3 7.49997 3C7.22382 3 6.99997 2.77614 6.99997 2.5C6.99997 2.22386 7.22382 2 7.49997 2C7.77611 2 7.99997 2.22386 7.99997 2.5ZM22 9.5C22 9.77614 21.7761 10 21.5 10C21.2238 10 21 9.77614 21 9.5C21 9.22386 21.2238 9 21.5 9C21.7761 9 22 9.22386 22 9.5Z" stroke="url(#paint0_linear_2004_12574)" stroke-width="1.2" stroke-linecap="round" stroke-linejoin="round"/>
<defs>
<linearGradient id="paint0_linear_2004_12574" x1="2.64435" y1="11.7074" x2="22" y2="11.7074" gradientUnits="userSpaceOnUse">
<stop stop-color="#DD1940"/>
<stop offset="1" stop-color="#92035F"/>
</linearGradient>
</defs>
</svg>
