<svg width="24" height="24" viewBox="0 0 24 24" fill="none" xmlns="http://www.w3.org/2000/svg">
<path d="M11.5 7C12.7 5.8 12.6667 3.83333 12.5 3M14 10.5C14.5 8.5 16.2351 9.44868 17.5 8.5C19.5 7 16.5 5 19.5 4.5M17 13C18.5 12.5 20.5 13 21.5 14M6.37108 12.4926L11.478 17.5995M6.37108 12.4926L7.2158 10.4089C7.48478 9.74544 8.34342 9.57128 8.84965 10.0775L13.8931 15.1209C14.3993 15.6271 14.2251 16.4858 13.5617 16.7548L11.478 17.5995M6.37108 12.4926L3.77711 18.891C3.44512 19.7099 4.26064 20.5255 5.07956 20.1935L11.478 17.5995M8.99999 5C8.99999 5.55228 8.55227 6 7.99999 6C7.4477 6 6.99999 5.55228 6.99999 5C6.99999 4.44772 7.4477 4 7.99999 4C8.55227 4 8.99999 4.44772 8.99999 5ZM21 18C21 18.5523 20.5523 19 20 19C19.4477 19 19 18.5523 19 18C19 17.4477 19.4477 17 20 17C20.5523 17 21 17.4477 21 18Z" stroke="url(#paint0_linear_2004_12573)" stroke-width="1.2" stroke-linecap="round" stroke-linejoin="round"/>
<defs>
<linearGradient id="paint0_linear_2004_12573" x1="3.70117" y1="11.6347" x2="21.5" y2="11.6347" gradientUnits="userSpaceOnUse">
<stop stop-color="#DD1940"/>
<stop offset="1" stop-color="#92035F"/>
</linearGradient>
</defs>
</svg>
