<svg width="24" height="24" viewBox="0 0 24 24" fill="none" xmlns="http://www.w3.org/2000/svg">
<path d="M6.50009 17.5L3.50009 20.5M17.5001 17.5L20.5001 20.5M12.0001 8.99998V12C12.0001 12.5523 12.4478 13 13.0001 13L16.0001 13M8.03563 4.46445L7.68207 4.1109C6.70576 3.13458 5.12285 3.13458 4.14654 4.1109C3.17023 5.08721 3.17023 6.67012 4.14654 7.64643L4.50009 7.99998M16.3781 4.46445L16.7317 4.1109C17.708 3.13458 19.2909 3.13458 20.2672 4.1109C21.2435 5.08721 21.2435 6.67012 20.2672 7.64643L19.9137 7.99998M12.0001 20C8.1341 20 5.00009 16.866 5.00009 13C5.00009 9.13399 8.1341 5.99998 12.0001 5.99998C15.8661 5.99998 19.0001 9.13399 19.0001 13C19.0001 16.866 15.8661 20 12.0001 20Z" stroke="white" stroke-width="1.2" stroke-linecap="round" stroke-linejoin="round"/>
</svg>
