<svg width="24" height="24" viewBox="0 0 24 24" fill="none" xmlns="http://www.w3.org/2000/svg">
<path d="M18.7795 15.5293C18.6389 15.6698 18.4483 15.7487 18.2495 15.7487C18.0508 15.7487 17.8602 15.6698 17.7195 15.5293L11.9995 9.81034L6.27953 15.5293C6.20993 15.5989 6.1273 15.6542 6.03637 15.6918C5.94543 15.7295 5.84796 15.7489 5.74953 15.7489C5.6511 15.7489 5.55364 15.7295 5.4627 15.6918C5.37176 15.6542 5.28913 15.5989 5.21953 15.5293C5.14993 15.4597 5.09472 15.3771 5.05705 15.2862C5.01939 15.1952 5 15.0978 5 14.9993C5 14.9009 5.01939 14.8034 5.05705 14.7125C5.09472 14.6216 5.14993 14.5389 5.21953 14.4693L11.4695 8.21934C11.6102 8.07889 11.8008 8 11.9995 8C12.1983 8 12.3889 8.07889 12.5295 8.21934L18.7795 14.4693C18.92 14.61 18.9989 14.8006 18.9989 14.9993C18.9989 15.1981 18.92 15.3887 18.7795 15.5293Z" fill="white"/>
</svg>
