<svg xmlns="http://www.w3.org/2000/svg" width="16" height="16" viewBox="0 0 16 16" fill="none">
  <path d="M3.25972 12C2.2366 12 1.65213 10.7303 2.31767 9.95312L4.00647 7.98112C4.04812 7.92807 4.10008 7.884 4.15921 7.85155C4.21833 7.81911 4.28342 7.79896 4.35053 7.79232C4.41765 7.78568 4.48542 7.79269 4.54976 7.81292C4.6141 7.83315 4.67368 7.86619 4.72492 7.91005C4.77616 7.9539 4.81799 8.00767 4.84791 8.06812C4.87783 8.12857 4.89521 8.19444 4.89901 8.26178C4.90281 8.32911 4.89295 8.39653 4.87002 8.45995C4.84709 8.52338 4.81157 8.58151 4.76558 8.63086L3.07678 10.6035C2.91966 10.787 3.01818 11 3.25972 11H9.20569C9.27194 10.9991 9.33773 11.0113 9.39921 11.036C9.46069 11.0607 9.51665 11.0974 9.56384 11.1439C9.61102 11.1904 9.64849 11.2459 9.67407 11.307C9.69964 11.3681 9.71281 11.4337 9.71281 11.5C9.71281 11.5663 9.69964 11.6319 9.67407 11.693C9.64849 11.7541 9.61102 11.8096 9.56384 11.8561C9.51665 11.9026 9.46069 11.9393 9.39921 11.964C9.33773 11.9887 9.27194 12.0009 9.20569 12H3.25972ZM11.7591 12C11.6928 12.0009 11.627 11.9887 11.5656 11.964C11.5041 11.9393 11.4481 11.9026 11.4009 11.8561C11.3537 11.8096 11.3163 11.7541 11.2907 11.693C11.2651 11.6319 11.252 11.5663 11.252 11.5C11.252 11.4337 11.2651 11.3681 11.2907 11.307C11.3163 11.2459 11.3537 11.1904 11.4009 11.1439C11.4481 11.0974 11.5041 11.0607 11.5656 11.036C11.627 11.0113 11.6928 10.9991 11.7591 11H12.7337C12.9778 11 13.0773 10.7837 12.9186 10.5983L8.18941 5.07487C8.0834 4.95115 7.91612 4.95083 7.81051 5.07421L6.2415 6.9069C6.19951 6.95905 6.14748 7.00225 6.08848 7.03391C6.02949 7.06558 5.96473 7.08508 5.89806 7.09125C5.83139 7.09742 5.76416 7.09014 5.70036 7.06984C5.63655 7.04953 5.57748 7.01663 5.52663 6.97306C5.47578 6.9295 5.43421 6.87617 5.40436 6.81623C5.37451 6.7563 5.35701 6.69098 5.35288 6.62415C5.34875 6.55732 5.35809 6.49034 5.38033 6.42719C5.40258 6.36404 5.43728 6.30599 5.48238 6.25651L7.05139 4.42448C7.54378 3.84921 8.45652 3.84889 8.94918 4.42382V4.42448L13.6783 9.94791C14.3456 10.7272 13.7596 12 12.7337 12H11.7591Z" fill="url(#paint0_linear_1009_1604)"/>
  <defs>
    <linearGradient id="paint0_linear_1009_1604" x1="2.03418" y1="7.99643" x2="13.9625" y2="7.99643" gradientUnits="userSpaceOnUse">
      <stop stop-color="#DD1940"/>
      <stop offset="1" stop-color="#92035F"/>
    </linearGradient>
  </defs>
</svg>
