<svg width="24" height="24" viewBox="0 0 24 24" fill="none" xmlns="http://www.w3.org/2000/svg">
<path d="M18.7795 8.21953C18.6389 8.07908 18.4483 8.00019 18.2495 8.00019C18.0508 8.00019 17.8602 8.07908 17.7195 8.21953L11.9995 13.9385L6.27953 8.21953C6.20993 8.14993 6.1273 8.09472 6.03637 8.05705C5.94543 8.01938 5.84796 8 5.74953 8C5.6511 8 5.55364 8.01938 5.4627 8.05705C5.37176 8.09472 5.28913 8.14993 5.21953 8.21953C5.14993 8.28913 5.09472 8.37176 5.05705 8.4627C5.01939 8.55363 5 8.6511 5 8.74953C5 8.84796 5.01939 8.94543 5.05705 9.03636C5.09472 9.1273 5.14993 9.20993 5.21953 9.27953L11.4695 15.5295C11.6102 15.67 11.8008 15.7489 11.9995 15.7489C12.1983 15.7489 12.3889 15.67 12.5295 15.5295L18.7795 9.27953C18.92 9.13891 18.9989 8.94828 18.9989 8.74953C18.9989 8.55078 18.92 8.36016 18.7795 8.21953Z" fill="white"/>
</svg>
