<svg width="24" height="24" viewBox="0 0 24 24" fill="none" xmlns="http://www.w3.org/2000/svg">
<path d="M8.21956 5.22047C8.07911 5.36109 8.00022 5.55172 8.00022 5.75047C8.00022 5.94922 8.07911 6.13984 8.21956 6.28047L13.9386 12.0005L8.21956 17.7205C8.14996 17.7901 8.09475 17.8727 8.05708 17.9636C8.01942 18.0546 8.00003 18.152 8.00003 18.2505C8.00003 18.3489 8.01942 18.4464 8.05708 18.5373C8.09475 18.6282 8.14996 18.7109 8.21956 18.7805C8.28916 18.8501 8.37179 18.9053 8.46273 18.9429C8.55367 18.9806 8.65113 19 8.74956 19C8.84799 19 8.94546 18.9806 9.0364 18.9429C9.12733 18.9053 9.20996 18.8501 9.27956 18.7805L15.5296 12.5305C15.67 12.3898 15.7489 12.1992 15.7489 12.0005C15.7489 11.8017 15.67 11.6111 15.5296 11.4705L9.27956 5.22047C9.13894 5.08002 8.94831 5.00113 8.74956 5.00113C8.55081 5.00113 8.36019 5.08002 8.21956 5.22047Z" fill="white"/>
</svg>
