<svg width="24" height="24" viewBox="0 0 24 24" fill="none" xmlns="http://www.w3.org/2000/svg">
<path d="M3.00006 10C3.00006 8.89545 3.89549 8.00002 5.00006 8.00002H6.16673C6.97413 8.00002 7.70234 7.51454 8.01288 6.76925L8.23724 6.23078C8.54778 5.48549 9.27599 5.00002 10.0834 5.00002H13.9167C14.7241 5.00002 15.4523 5.48549 15.7629 6.23078L15.9872 6.76925C16.2978 7.51454 17.026 8.00002 17.8334 8.00002H19.0001C20.1046 8.00002 21.0001 8.89545 21.0001 10V17C21.0001 18.1046 20.1046 19 19.0001 19H5.00006C3.89549 19 3.00006 18.1046 3.00006 17V10Z" stroke="white" stroke-width="1.2" stroke-linecap="round" stroke-linejoin="round"/>
<path d="M15.0001 13C15.0001 14.6569 13.6569 16 12.0001 16C10.3432 16 9.00006 14.6569 9.00006 13C9.00006 11.3432 10.3432 10 12.0001 10C13.6569 10 15.0001 11.3432 15.0001 13Z" stroke="white" stroke-width="1.2" stroke-linecap="round" stroke-linejoin="round"/>
</svg>
