<svg width="24" height="24" viewBox="0 0 24 24" fill="none" xmlns="http://www.w3.org/2000/svg">
<path d="M16 18V8.5C16 7.94772 16.4477 7.5 17 7.5H19C19.5523 7.5 20 7.94772 20 8.5V18C20 18.5523 19.5523 19 19 19H17C16.4477 19 16 18.5523 16 18Z" stroke="white" stroke-width="1.2" stroke-linecap="round" stroke-linejoin="round"/>
<path d="M10 18V6C10 5.44772 10.4477 5 11 5H13C13.5523 5 14 5.44772 14 6V18C14 18.5523 13.5523 19 13 19H11C10.4477 19 10 18.5523 10 18Z" stroke="white" stroke-width="1.2" stroke-linecap="round" stroke-linejoin="round"/>
<path d="M4 18V11.5C4 10.9477 4.44702 10.5 4.99931 10.5H7.00057C7.55286 10.5 8 10.9477 8 11.5V18C8 18.5523 7.55228 19 7 19H5C4.44772 19 4 18.5523 4 18Z" stroke="white" stroke-width="1.2" stroke-linecap="round" stroke-linejoin="round"/>
</svg>
