<svg width="24" height="24" viewBox="0 0 24 24" fill="none" xmlns="http://www.w3.org/2000/svg">
<path d="M18 13V19M12 10.5V19M6 16V19M7 10.3819C6.73462 10.1444 6.38418 10 6 10C5.17157 10 4.5 10.6716 4.5 11.5C4.5 12.3284 5.17157 13 6 13C6.82843 13 7.5 12.3284 7.5 11.5C7.5 11.0557 7.30687 10.6566 7 10.3819ZM7 10.3819L10.8819 6.5M10.8819 6.5C11.1566 6.80687 11.5557 7 12 7C12.6531 7 13.2087 6.5826 13.4146 6M10.8819 6.5C10.6444 6.23462 10.5 5.88418 10.5 5.5C10.5 4.67157 11.1716 4 12 4C12.8284 4 13.5 4.67157 13.5 5.5C13.5 5.67532 13.4699 5.84361 13.4146 6M13.4146 6L16.549 7.11839M16.549 7.11839C16.517 7.24023 16.5 7.36813 16.5 7.5C16.5 8.32843 17.1716 9 18 9C18.8284 9 19.5 8.32843 19.5 7.5C19.5 6.67157 18.8284 6 18 6C17.3034 6 16.7178 6.47478 16.549 7.11839Z" stroke="white" stroke-width="1.2" stroke-linecap="round" stroke-linejoin="round"/>
</svg>
