<svg width="24" height="24" viewBox="0 0 24 24" fill="none" xmlns="http://www.w3.org/2000/svg">
<path d="M4.6388 16.25C6.98601 20.3155 12.1845 21.7084 16.25 19.3612C18.1237 18.2795 19.4297 16.5921 20.0635 14.6892C20.1535 14.4191 19.9778 14.1389 19.6987 14.0836L17.1437 13.577C16.6479 13.4787 16.1669 13.7734 15.9187 14.2137C15.5364 14.8919 14.973 15.4797 14.25 15.8971C12.0977 17.1398 9.34554 16.4023 8.1029 14.25C6.86026 12.0977 7.5977 9.34555 9.75002 8.1029C9.79506 8.0769 9.84036 8.05176 9.88591 8.02748C10.3195 7.79638 10.6206 7.34161 10.5511 6.85519L10.1752 4.22563C10.1358 3.94936 9.86805 3.76474 9.60038 3.84373C8.96759 4.03046 8.3466 4.29436 7.75001 4.6388C3.68453 6.98601 2.29159 12.1845 4.6388 16.25Z" stroke="white" stroke-width="1.2" stroke-linecap="round" stroke-linejoin="round"/>
<path d="M16.2018 10.3873C16.1183 10.1705 16.0169 9.95749 15.8971 9.75002C15.3516 8.80507 14.515 8.13285 13.566 7.78118C13.0875 7.60384 12.7183 7.16847 12.7429 6.65872L12.8418 4.60485C12.8695 4.03048 13.377 3.59247 13.9369 3.72361C16.1432 4.24039 18.1388 5.63279 19.3612 7.75002C19.8009 8.5116 20.1094 9.31294 20.2936 10.1279C20.4243 10.7058 19.9513 11.2155 19.3588 11.209L17.2474 11.186C16.7697 11.1808 16.3735 10.833 16.2018 10.3873Z" stroke="white" stroke-width="1.2" stroke-linecap="round" stroke-linejoin="round"/>
</svg>
