<svg width="24" height="24" viewBox="0 0 24 24" fill="none" xmlns="http://www.w3.org/2000/svg">
<path d="M21.3975 7.1475L9.39751 19.1475C9.29204 19.2528 9.14907 19.312 9.00001 19.312C8.85094 19.312 8.70798 19.2528 8.60251 19.1475L3.35251 13.8975C3.25315 13.7909 3.19905 13.6498 3.20163 13.5041C3.2042 13.3584 3.26323 13.2193 3.36629 13.1163C3.46935 13.0132 3.60839 12.9542 3.75412 12.9516C3.89984 12.949 4.04088 13.0031 4.14751 13.1025L9.00001 17.9541L20.6025 6.3525C20.7091 6.25314 20.8502 6.19905 20.9959 6.20162C21.1416 6.20419 21.2807 6.26322 21.3837 6.36628C21.4868 6.46934 21.5458 6.60838 21.5484 6.75411C21.551 6.89983 21.4969 7.04087 21.3975 7.1475Z" fill="white"/>
<path fill-rule="evenodd" clip-rule="evenodd" d="M21.5743 7.32428L9.57428 19.3243C9.42194 19.4764 9.21532 19.562 9.00001 19.562C8.78469 19.562 8.57819 19.4765 8.42584 19.3244L3.16949 14.068C3.02597 13.914 2.94795 13.7102 2.95166 13.4997C2.95538 13.2892 3.04065 13.0884 3.18951 12.9395C3.33838 12.7906 3.53921 12.7054 3.7497 12.7017C3.9602 12.6979 4.16391 12.7761 4.31794 12.9196L4.32438 12.9256L9 17.6005L20.432 6.16948C20.586 6.02596 20.7898 5.94794 21.0003 5.95166C21.2108 5.95537 21.4116 6.04064 21.5605 6.18951C21.7094 6.33837 21.7946 6.53921 21.7983 6.7497C21.8021 6.96019 21.7239 7.16391 21.5804 7.31793L21.5743 7.32428ZM20.6025 6.3525C20.7091 6.25314 20.8502 6.19905 20.9959 6.20162C21.1416 6.20419 21.2807 6.26322 21.3837 6.36628C21.4868 6.46934 21.5458 6.60838 21.5484 6.75411C21.551 6.89983 21.4969 7.04087 21.3975 7.1475L9.39751 19.1475C9.29204 19.2528 9.14907 19.312 9.00001 19.312C8.85094 19.312 8.70798 19.2528 8.60251 19.1475L3.35251 13.8975C3.25315 13.7909 3.19905 13.6498 3.20163 13.5041C3.2042 13.3584 3.26323 13.2193 3.36629 13.1163C3.46935 13.0132 3.60839 12.9542 3.75412 12.9516C3.89984 12.949 4.04088 13.0031 4.14751 13.1025L9.00001 17.9541L20.6025 6.3525Z" fill="white"/>
</svg>
