<svg width="24" height="24" viewBox="0 0 24 24" fill="none" xmlns="http://www.w3.org/2000/svg">
<path d="M7.68428 18.5H5.83864C3.99745 18.5 2.50006 16.8525 2.50006 14.8271C2.50006 13.3341 3.59553 12.2287 4.97573 11.9576C5.74178 11.8071 6.49708 11.2387 6.64212 10.4716C7.17189 7.66978 9.13302 5.50003 11.6743 5.50003C13.5823 5.50003 15.3951 6.60036 16.1904 8.801C16.4207 9.43856 17.0589 9.87294 17.7337 9.93805C19.7616 10.1337 21.5014 11.7651 21.5001 13.7926C21.5001 16.3876 19.5817 18.5 17.2212 18.5H15.3756" stroke="white" stroke-width="1.2" stroke-linecap="round" stroke-linejoin="round"/>
<path d="M11.5 20L11.5002 12M11.5002 12L8.50006 14.8637M11.5002 12L14.5001 14.8636" stroke="white" stroke-width="1.2" stroke-linecap="round" stroke-linejoin="round"/>
</svg>
