<svg width="24" height="24" viewBox="0 0 24 24" fill="none" xmlns="http://www.w3.org/2000/svg">
<path d="M7.68419 16H5.83855C3.99736 16 2.49997 14.3526 2.49997 12.3271C2.49997 10.8341 3.59544 9.72867 4.97564 9.45759C5.74169 9.30713 6.49699 8.73869 6.64203 7.97159C7.1718 5.1698 9.13292 3.00005 11.6742 3.00005C13.5822 3.00005 15.395 4.10037 16.1903 6.30102C16.4207 6.93858 17.0588 7.37296 17.7336 7.43806C19.7615 7.63373 21.5013 9.26509 21.5 11.2926C21.5 13.8877 19.5816 16 17.2211 16H15.3755" stroke="white" stroke-width="1.2" stroke-linecap="round" stroke-linejoin="round"/>
<path d="M11.4999 13L11.5001 21M11.5001 21L8.49997 18.1364M11.5001 21L14.5 18.1365" stroke="white" stroke-width="1.2" stroke-linecap="round" stroke-linejoin="round"/>
</svg>
