<svg width="24" height="24" viewBox="0 0 24 24" fill="none" xmlns="http://www.w3.org/2000/svg">
<path d="M4.79801 15.0999C3.75905 15.4033 3.00006 16.363 3.00006 17.5C3.00006 18.8807 4.11935 20 5.50006 20C6.31777 20 7.04379 19.6074 7.49991 19.0005M4.79801 15.0999C5.02073 15.0349 5.25632 15 5.50006 15C6.88077 15 8.00006 16.1193 8.00006 17.5C8.00006 18.063 7.81396 18.5825 7.49991 19.0005M4.79801 15.0999C4.60405 14.4336 4.50006 13.729 4.50006 13C4.50006 9.73407 6.58759 6.9557 9.50112 5.92641M7.49991 19.0005C8.75343 19.9421 10.3116 20.5 12.0001 20.5C13.6885 20.5 15.2467 19.9421 16.5002 19.0005M9.50112 5.92641C9.50042 5.95086 9.50006 5.97539 9.50006 6.00001C9.50006 7.38073 10.6193 8.50001 12.0001 8.50001C13.3808 8.50001 14.5001 7.38073 14.5001 6.00001C14.5001 5.97539 14.4997 5.95085 14.499 5.9264M9.50112 5.92641C9.54006 4.57974 10.644 3.50002 12.0001 3.50002C13.3561 3.50002 14.4601 4.57974 14.499 5.9264M14.499 5.9264C17.4125 6.95569 19.5001 9.73407 19.5001 13C19.5001 13.729 19.3961 14.4336 19.2021 15.0999M19.2021 15.0999C18.9794 15.0349 18.7438 15 18.5001 15C17.1193 15 16.0001 16.1193 16.0001 17.5C16.0001 18.063 16.1862 18.5825 16.5002 19.0005M19.2021 15.0999C20.2411 15.4033 21.0001 16.363 21.0001 17.5C21.0001 18.8807 19.8808 20 18.5001 20C17.6823 20 16.9563 19.6074 16.5002 19.0005" stroke="white" stroke-width="1.2" stroke-linecap="round" stroke-linejoin="round"/>
</svg>
