<svg width="24" height="24" viewBox="0 0 24 24" fill="none" xmlns="http://www.w3.org/2000/svg">
<path d="M13 4.04241C11.246 3.89019 9.49633 4.14824 7.75965 4.81113C6.129 5.43308 4.73683 6.4102 3.79886 7.97202C2.89461 9.47779 2.73923 11.0614 3.429 12.702C3.85376 13.714 4.54706 14.5102 5.38168 15.1759C5.52841 15.294 5.67971 15.4058 5.833 15.5155C6.16397 15.7525 6.32639 16.1667 6.18661 16.549C5.90798 17.3111 5.47921 18.0076 4.92467 18.5918C4.7496 18.777 4.58646 18.9768 4.42615 19.1781C4.28833 19.3516 4.24826 19.5426 4.35865 19.7526C4.46975 19.9626 4.64694 20.0246 4.8635 19.9918C5.03438 19.9662 5.20735 19.9429 5.3761 19.9064C7.23103 19.501 8.90094 18.6976 10.3564 17.4274C11.0473 16.8426 13.7328 17.2784 14.7707 17.0235C16.6825 16.5546 18.3876 15.703 19.706 14.1353C20.4916 13.201 20.922 12.1092 20.9903 11M20.5 6.00002C20.5 7.38073 19.3807 8.50002 18 8.50002C16.6193 8.50002 15.5 7.38073 15.5 6.00002C15.5 4.6193 16.6193 3.50002 18 3.50002C19.3807 3.50002 20.5 4.6193 20.5 6.00002Z" stroke="white" stroke-width="1.2" stroke-linecap="round" stroke-linejoin="round"/>
</svg>
