<svg width="24" height="24" viewBox="0 0 24 24" fill="none" xmlns="http://www.w3.org/2000/svg">
<path d="M6.00006 6C6.00006 4.89543 6.89549 4 8.00006 4H11.5225C12.3306 4 13.0593 4.48627 13.3694 5.23247L13.4879 5.51753C13.798 6.26373 14.5267 6.75 15.3347 6.75H20.0001C21.1046 6.75 22.0001 7.64543 22.0001 8.75V16C22.0001 17.1046 21.1046 18 20.0001 18H8.00006C6.89549 18 6.00006 17.1046 6.00006 16V6Z" stroke="white" stroke-width="1.2" stroke-linecap="round" stroke-linejoin="round"/>
<path d="M6.00006 7H5.00006C3.89549 7 3.00006 7.89543 3.00006 9V19C3.00006 20.1046 3.89549 21 5.00006 21H17.0001C18.1046 21 19.0001 20.1046 19.0001 19V18" stroke="white" stroke-width="1.2" stroke-linecap="round" stroke-linejoin="round"/>
</svg>
