<svg width="24" height="24" viewBox="0 0 24 24" fill="none" xmlns="http://www.w3.org/2000/svg">
<path d="M3 16L8.29289 10.7071C8.68342 10.3166 9.31658 10.3166 9.70711 10.7071L14 15M14 15L12.5 16.5M14 15L15.7929 13.2071C16.1834 12.8166 16.8166 12.8166 17.2071 13.2071L21 17M5 20H19C20.1046 20 21 19.1046 21 18V5.99998C21 4.89542 20.1046 3.99998 19 3.99998H5C3.89543 3.99998 3 4.89542 3 5.99998V18C3 19.1046 3.89543 20 5 20ZM18.5 8.49998C18.5 9.60455 17.6046 10.5 16.5 10.5C15.3954 10.5 14.5 9.60455 14.5 8.49998C14.5 7.39542 15.3954 6.49998 16.5 6.49998C17.6046 6.49998 18.5 7.39542 18.5 8.49998Z" stroke="white" stroke-width="1.2" stroke-linecap="round" stroke-linejoin="round"/>
</svg>
