<svg width="24" height="24" viewBox="0 0 24 24" fill="none" xmlns="http://www.w3.org/2000/svg">
<path d="M11.5192 12.3173L10.5494 8.92306C10.274 7.95934 10.9977 7.00001 12 7.00001C13.0022 7.00001 13.7259 7.95934 13.4505 8.92306L12.4807 12.3173C12.3426 12.8009 11.6573 12.8009 11.5192 12.3173Z" stroke="white" stroke-width="1.2" stroke-linecap="round" stroke-linejoin="round"/>
<path d="M13 16C13 16.5523 12.5522 17 12 17C11.4477 17 11 16.5523 11 16C11 15.4477 11.4477 15 12 15C12.5522 15 13 15.4477 13 16Z" stroke="white" stroke-width="1.2" stroke-linecap="round" stroke-linejoin="round"/>
<path d="M3.36597 13.5C2.83008 12.5718 2.83008 11.4282 3.36597 10.5L6.38392 5.27277C6.91982 4.34456 7.9102 3.77277 8.982 3.77277L15.0179 3.77277C16.0897 3.77277 17.0801 4.34456 17.616 5.27277L20.6339 10.5C21.1698 11.4282 21.1698 12.5718 20.6339 13.5L17.616 18.7272C17.0801 19.6555 16.0897 20.2272 15.0179 20.2272H8.982C7.9102 20.2272 6.91982 19.6555 6.38392 18.7272L3.36597 13.5Z" stroke="white" stroke-width="1.2" stroke-linecap="round" stroke-linejoin="round"/>
</svg>
