<svg width="24" height="24" viewBox="0 0 24 24" fill="none" xmlns="http://www.w3.org/2000/svg">
<path d="M15.5 5.75C15.5 3.67893 13.8211 2 11.75 2C9.67893 2 8 3.67893 8 5.75V12M6.5 22H17C18.1046 22 19 21.1046 19 20V14C19 12.8954 18.1046 12 17 12H6.5C5.39543 12 4.5 12.8954 4.5 14V20C4.5 21.1046 5.39543 22 6.5 22ZM14 17C14 18.1046 13.1046 19 12 19C10.8954 19 10 18.1046 10 17C10 15.8954 10.8954 15 12 15C13.1046 15 14 15.8954 14 17Z" stroke="white" stroke-width="1.2" stroke-linecap="round" stroke-linejoin="round"/>
</svg>
