<svg width="24" height="24" viewBox="0 0 24 24" fill="none" xmlns="http://www.w3.org/2000/svg">
<path d="M15.0002 17.5V18C15.0002 19.9882 13.6571 21 12.0002 21C10.3434 21 9.00024 19.9882 9.00024 18V17.5M15.0002 17.5H17.0372C18.6784 17.5 19.6335 15.6225 18.7213 14.2581C18.0387 13.2371 17.3851 12.1955 17.0584 11.5M15.0002 17.5H9.00024M9.00024 17.5H6.96299C5.32178 17.5 4.36665 15.6225 5.27884 14.2581C6.11958 13.0006 6.91636 11.7119 7.11238 11.0769C7.64479 9.35215 7.46455 8.57588 7.46455 7.61537C7.46455 5.60124 8.73239 3.88845 10.5002 3.25831M18.5002 5.49998C18.5002 6.8807 17.381 7.99998 16.0002 7.99998C14.6195 7.99998 13.5002 6.8807 13.5002 5.49998C13.5002 4.11927 14.6195 2.99998 16.0002 2.99998C17.381 2.99998 18.5002 4.11927 18.5002 5.49998Z" stroke="white" stroke-width="1.2" stroke-linecap="round" stroke-linejoin="round"/>
</svg>
