<svg width="24" height="24" viewBox="0 0 24 24" fill="none" xmlns="http://www.w3.org/2000/svg">
<path d="M6.79116 15.199C6.73469 13.2091 6.9452 11.2069 7.5979 9.55239C8.57067 7.08664 10.9157 5.47257 13.4761 6.15862C16.0365 6.84467 17.5559 9.47642 16.8699 12.0368C16.4849 13.4735 16.1068 14.7176 16.2491 16.2267M12.2335 10.7946C11.0336 13.5943 11.4336 15.9941 11.8337 17.9939M14.0506 17.1988C13.5072 14.5842 13.8942 13.4103 14.5463 11.432L14.5517 11.4157C14.8947 10.1355 14.135 8.81965 12.8548 8.47663C11.5746 8.1336 10.2587 8.89332 9.9157 10.1735C9.27239 12.7243 8.78021 14.328 9.18432 16.7989M17.0002 2.99998L19.0002 2.99998C20.1048 2.99998 21.0002 3.89542 21.0002 4.99998V6.99998M17.0002 21H19.0002C20.1048 21 21.0002 20.1046 21.0002 19V17M7.00024 2.99998L5.00024 2.99998C3.89567 2.99998 3.00024 3.89542 3.00024 4.99998L3.00024 6.99998M7.00024 21H5.00024C3.89567 21 3.00024 20.1046 3.00024 19L3.00024 17" stroke="white" stroke-width="1.2" stroke-linecap="round" stroke-linejoin="round"/>
</svg>
