<svg width="24" height="24" viewBox="0 0 24 24" fill="none" xmlns="http://www.w3.org/2000/svg">
<path d="M19.7669 6.66819C19.5706 6.35039 19.2485 6.11765 18.8709 6.02273C18.4926 5.92781 18.0903 5.97773 17.7517 6.16125C17.1891 6.46566 16.5107 6.46532 15.9483 6.16034L15.3656 5.84431C14.8381 5.55824 14.5095 5.00632 14.5095 4.40623C14.5095 3.64123 13.851 2.99998 13.0367 2.99998H10.9632C10.1489 2.99998 9.49043 3.64123 9.49043 4.40623C9.49043 5.00635 9.16199 5.55834 8.63455 5.84463L8.05251 6.16055C7.49014 6.46579 6.81159 6.46606 6.24898 6.16125C5.91038 5.97774 5.50734 5.92781 5.12904 6.02273C4.75147 6.11765 4.42936 6.35039 4.23307 6.66819L3.19778 8.35288C3.00226 8.67069 2.94906 9.04898 3.0502 9.40334C3.15133 9.75843 3.39854 10.0608 3.73715 10.2443C4.29116 10.545 4.63622 11.1247 4.63641 11.7551L4.63655 12.2449C4.63674 12.8752 4.29185 13.455 3.7379 13.7557C3.39929 13.9399 3.15132 14.2415 3.0502 14.5959C2.94907 14.951 3.00225 15.3293 3.19778 15.6471L4.23457 17.3318C4.43009 17.6496 4.75222 17.8823 5.12979 17.9772C5.50811 18.0722 5.91038 18.0222 6.24973 17.8387C6.81241 17.5343 7.49077 17.5347 8.05312 17.8397L8.63377 18.1546C9.16165 18.4409 9.49042 18.9932 9.49042 19.5937C9.49042 20.3587 10.1489 21 10.9632 21H13.0361C13.8512 21 14.5089 20.3587 14.5089 19.5937C14.5094 18.9932 14.8384 18.441 15.3664 18.1547L15.9477 17.8395C16.5101 17.5346 17.1884 17.5343 17.7511 17.8387C18.0905 18.0222 18.4928 18.0722 18.8703 17.9772C19.2487 17.8823 19.5708 17.6496 19.7663 17.3318L20.8023 15.6471C20.9979 15.3293 21.0511 14.951 20.9499 14.5966C20.8488 14.2415 20.6016 13.9392 20.263 13.7557C19.709 13.455 19.364 12.8752 19.364 12.2449V11.7551C19.364 11.1248 19.709 10.545 20.263 10.2443C20.6016 10.0601 20.8488 9.75841 20.9499 9.40403C21.0511 9.04894 20.9979 8.67067 20.8023 8.35287L19.7669 6.66819Z" stroke="white" stroke-width="1.2" stroke-linecap="round" stroke-linejoin="round"/>
<path d="M15.0001 12C15.0001 13.6568 13.6569 15 12.0001 15C10.3432 15 9.00006 13.6568 9.00006 12C9.00006 10.3431 10.3432 8.99998 12.0001 8.99998C13.6569 8.99998 15.0001 10.3431 15.0001 12Z" stroke="white" stroke-width="1.2" stroke-linecap="round" stroke-linejoin="round"/>
</svg>
