<svg width="24" height="24" viewBox="0 0 24 24" fill="none" xmlns="http://www.w3.org/2000/svg">
<path d="M12.0106 21H11.7426C10.8557 21 10.1368 20.2811 10.1368 19.3942C10.1368 18.8933 9.90308 18.4212 9.50482 18.1174L8.46775 17.3265C7.88011 16.8783 7.08264 16.8213 6.43721 17.1813L6.40189 17.201C5.54481 17.679 4.46301 17.3893 3.95955 16.5469C3.43433 15.6681 3.73937 14.529 4.63351 14.0303L4.67948 14.0047C5.27044 13.6751 5.6367 13.0514 5.6367 12.3748V11.6257C5.6367 10.949 5.27044 10.3254 4.67947 9.99577L4.63351 9.97014C3.73937 9.47145 3.43433 8.3324 3.95955 7.45359C4.46301 6.6112 5.54481 6.32148 6.40189 6.7995L6.53776 6.87528C7.13592 7.2089 7.8642 7.20889 8.46235 6.87525L9.18641 6.47139C9.77316 6.14412 10.1368 5.5249 10.1368 4.85305C10.1368 3.82963 10.9767 2.99998 12.0001 2.99998C13.0235 2.99998 13.8634 3.82962 13.8634 4.85303C13.8634 5.52486 14.227 6.14407 14.8138 6.47134L15.5378 6.8752C16.1359 7.20884 16.8642 7.20885 17.4623 6.87524L17.5982 6.7995C18.4552 6.32148 19.537 6.6112 20.0405 7.45358C20.5657 8.33239 20.2607 9.47145 19.3665 9.97014L19.3205 9.99577C18.7296 10.3254 18.3633 10.949 18.3633 11.6257V12.3748C18.3633 13.0514 18.7296 13.6751 19.3205 14.0047L19.3665 14.0303C20.2607 14.529 20.5657 15.6681 20.0405 16.5469C19.537 17.3893 18.4552 17.679 17.5981 17.201L17.4623 17.1252C16.8642 16.7916 16.1359 16.7916 15.5378 17.1252L14.8138 17.529C14.2271 17.8562 13.8634 18.4754 13.8634 19.1472C13.8634 20.1704 13.0339 21 12.0106 21Z" stroke="white" stroke-width="1.2" stroke-linecap="round" stroke-linejoin="round"/>
<path d="M15.0002 12C15.0002 13.6568 13.6571 15 12.0002 15C10.3434 15 9.00025 13.6568 9.00025 12C9.00025 10.3431 10.3434 8.99998 12.0002 8.99998C13.6571 8.99998 15.0002 10.3431 15.0002 12Z" stroke="white" stroke-width="1.2" stroke-linecap="round" stroke-linejoin="round"/>
</svg>
