<svg width="24" height="24" viewBox="0 0 24 24" fill="none" xmlns="http://www.w3.org/2000/svg">
<path d="M19.667 3.00127H4.32828C3.60825 2.99314 3.00884 3.57863 3.00006 4.29865V19.701C3.00851 20.4215 3.60785 21.0076 4.32828 20.9999H19.667C20.3892 21.009 20.9906 20.4229 21.0002 19.701V4.2976C20.9906 3.57605 20.3883 2.99064 19.667 3.00014M18.3374 18.3372H15.6702V14.1604C15.6702 13.1644 15.6524 11.8822 14.2831 11.8822C12.8939 11.8822 12.6814 12.9674 12.6814 14.0879V18.3369H10.0143V9.74767H12.5747V10.9215H12.6106C13.1319 10.0301 14.1048 9.49574 15.1368 9.53406C17.84 9.53406 18.3385 11.3121 18.3385 13.6253L18.3374 18.3372ZM7.00491 8.57355C6.15583 8.57355 5.45682 7.87494 5.45682 7.02586C5.45682 6.17677 6.1555 5.47808 7.00459 5.47808C7.85359 5.47808 8.5522 6.17661 8.55236 7.02553C8.55236 7.87446 7.85384 8.57347 7.00491 8.57355ZM8.33844 18.3372H5.66857V9.74767H8.33844V18.3372Z" stroke="white" stroke-width="1.20001" stroke-linecap="round" stroke-linejoin="round"/>
</svg>
