<svg width="24" height="24" viewBox="0 0 24 24" fill="none" xmlns="http://www.w3.org/2000/svg">
<path d="M3.00024 12.0452C3.00024 16.1081 5.70558 19.5379 9.40068 20.7126C9.99452 20.9014 10.5608 20.4272 10.5608 19.8041V15.0778C10.5608 14.8017 10.3369 14.5778 10.0608 14.5778H8.81079C8.53465 14.5778 8.31079 14.354 8.31079 14.0778V12.5451C8.31079 12.269 8.53465 12.0451 8.81079 12.0451H10.0608C10.3369 12.0451 10.5608 11.8213 10.5608 11.5451V10.0552C10.5608 7.79389 12.0008 6.52756 14.0708 6.52756C14.5614 6.52756 15.1067 6.58243 15.6215 6.64943C15.8681 6.68152 16.0508 6.89311 16.0508 7.1418V8.515C16.0508 8.79114 15.8269 9.015 15.5508 9.015H14.8808C13.8008 9.015 13.5308 9.55771 13.5308 10.2813V11.5451C13.5308 11.8213 13.7546 12.0451 14.0308 12.0451H15.3295C15.6371 12.0451 15.8718 12.3203 15.8232 12.6241L15.5781 14.1568C15.5393 14.3993 15.3301 14.5778 15.0844 14.5778H14.0284C13.7532 14.5778 13.5297 14.8002 13.5284 15.0754L13.506 19.7983C13.503 20.4234 14.0703 20.9007 14.6657 20.7104C18.3481 19.5336 21.0002 16.1056 21.0002 12.0452C21.0002 7.07035 16.9502 3 12.0002 3C7.05024 3 3.00024 7.07035 3.00024 12.0452Z" stroke="white" stroke-width="1.2" stroke-linecap="round" stroke-linejoin="round"/>
</svg>
