<svg width="24" height="24" viewBox="0 0 24 24" fill="none" xmlns="http://www.w3.org/2000/svg">
<path d="M4.88965 18.0107C3.35496 18.0107 2.47825 16.1061 3.47656 14.9404L6.00977 11.9824C6.07225 11.9028 6.15018 11.8367 6.23887 11.788C6.32756 11.7394 6.42518 11.7091 6.52586 11.6992C6.62654 11.6892 6.72819 11.6997 6.8247 11.7301C6.9212 11.7604 7.01058 11.81 7.08744 11.8758C7.16429 11.9415 7.22705 12.0222 7.27193 12.1129C7.31681 12.2035 7.34288 12.3023 7.34858 12.4034C7.35428 12.5044 7.33949 12.6055 7.30509 12.7006C7.2707 12.7958 7.21741 12.883 7.14844 12.957L4.61523 15.916C4.37955 16.1912 4.52734 16.5107 4.88965 16.5107H13.8086C13.908 16.5093 14.0066 16.5276 14.0989 16.5647C14.1911 16.6018 14.275 16.6568 14.3458 16.7266C14.4166 16.7963 14.4728 16.8795 14.5112 16.9712C14.5495 17.0629 14.5693 17.1613 14.5693 17.2607C14.5693 17.3601 14.5495 17.4585 14.5112 17.5502C14.4728 17.6419 14.4166 17.725 14.3458 17.7948C14.275 17.8646 14.1911 17.9196 14.0989 17.9567C14.0066 17.9937 13.908 18.0121 13.8086 18.0107H4.88965ZM17.6387 18.0107C17.5393 18.0121 17.4406 17.9937 17.3484 17.9567C17.2562 17.9196 17.1722 17.8646 17.1014 17.7948C17.0307 17.725 16.9745 17.6419 16.9361 17.5502C16.8977 17.4585 16.878 17.3601 16.878 17.2607C16.878 17.1613 16.8977 17.0629 16.9361 16.9712C16.9745 16.8795 17.0307 16.7963 17.1014 16.7266C17.1722 16.6568 17.2562 16.6018 17.3484 16.5647C17.4406 16.5276 17.5393 16.5093 17.6387 16.5107H19.1006C19.4667 16.5107 19.6161 16.1863 19.3779 15.9081L12.2842 7.62299C12.1252 7.43741 11.8742 7.43694 11.7158 7.62201L9.3623 10.371C9.29932 10.4493 9.22127 10.5141 9.13278 10.5616C9.04429 10.6091 8.94716 10.6383 8.84716 10.6476C8.74715 10.6568 8.6463 10.6459 8.5506 10.6154C8.45489 10.585 8.36628 10.5356 8.29001 10.4703C8.21374 10.4049 8.15137 10.3249 8.1066 10.235C8.06183 10.1451 8.03557 10.0472 8.02938 9.94691C8.02319 9.84667 8.03719 9.7462 8.07056 9.65147C8.10393 9.55674 8.15598 9.46968 8.22363 9.39545L10.5771 6.6474C11.3157 5.78449 12.6848 5.78402 13.4238 6.64642V6.6474L20.5176 14.9326C21.5184 16.1014 20.6394 18.0107 19.1006 18.0107H17.6387Z" fill="white"/>
</svg>
