<svg width="24" height="24" viewBox="0 0 24 24" fill="none" xmlns="http://www.w3.org/2000/svg">
<path d="M4.88965 6C3.35496 6 2.47825 7.90453 3.47656 9.07031L6.00977 12.0283C6.07225 12.1079 6.15018 12.174 6.23887 12.2227C6.32756 12.2713 6.42518 12.3015 6.52586 12.3115C6.62654 12.3215 6.72819 12.311 6.8247 12.2806C6.9212 12.2503 7.01058 12.2007 7.08744 12.1349C7.16429 12.0691 7.22705 11.9885 7.27193 11.8978C7.31681 11.8071 7.34288 11.7083 7.34858 11.6073C7.35428 11.5063 7.33949 11.4052 7.30509 11.3101C7.2707 11.2149 7.21741 11.1277 7.14844 11.0537L4.61523 8.09473C4.37955 7.8195 4.52734 7.5 4.88965 7.5H13.8086C13.908 7.5014 14.0066 7.48304 14.0989 7.44598C14.1911 7.40892 14.275 7.3539 14.3458 7.28412C14.4166 7.21434 14.4728 7.13118 14.5112 7.03949C14.5495 6.9478 14.5693 6.84939 14.5693 6.75C14.5693 6.6506 14.5495 6.5522 14.5112 6.46051C14.4728 6.36882 14.4166 6.28566 14.3458 6.21588C14.275 6.1461 14.1911 6.09107 14.0989 6.05401C14.0066 6.01695 13.908 5.99859 13.8086 6H4.88965ZM17.6387 6C17.5393 5.99859 17.4406 6.01695 17.3484 6.05401C17.2562 6.09107 17.1722 6.1461 17.1014 6.21588C17.0307 6.28566 16.9745 6.36882 16.9361 6.46051C16.8977 6.5522 16.878 6.6506 16.878 6.75C16.878 6.84939 16.8977 6.9478 16.9361 7.03949C16.9745 7.13118 17.0307 7.21434 17.1014 7.28412C17.1722 7.3539 17.2562 7.40892 17.3484 7.44598C17.4406 7.48304 17.5393 7.5014 17.6387 7.5H19.1006C19.4667 7.5 19.6161 7.8244 19.3779 8.10254L12.2842 16.3877C12.1252 16.5733 11.8742 16.5737 11.7158 16.3887L9.3623 13.6396C9.29932 13.5614 9.22127 13.4966 9.13278 13.4491C9.04429 13.4016 8.94716 13.3724 8.84716 13.3631C8.74715 13.3539 8.6463 13.3648 8.5506 13.3952C8.45489 13.4257 8.36628 13.4751 8.29001 13.5404C8.21374 13.6057 8.15137 13.6857 8.1066 13.7756C8.06183 13.8655 8.03557 13.9635 8.02938 14.0638C8.02319 14.164 8.03719 14.2645 8.07056 14.3592C8.10393 14.4539 8.15598 14.541 8.22363 14.6152L10.5771 17.3633C11.3157 18.2262 12.6848 18.2267 13.4238 17.3643V17.3633L20.5176 9.07812C21.5184 7.90926 20.6394 6 19.1006 6H17.6387Z" fill="white"/>
</svg>
