<svg width="24" height="24" viewBox="0 0 24 24" fill="none" xmlns="http://www.w3.org/2000/svg">
<path d="M2.99997 11.3077C2.99997 10.2031 3.8954 9.3077 4.99997 9.3077H7.62861C7.86819 9.3077 8.09981 9.22169 8.28132 9.06531L11.3473 6.42388C11.9954 5.86546 13 6.32595 13 7.18149V16.8185C13 17.6741 11.9954 18.1346 11.3473 17.5761L8.28132 14.9347C8.09981 14.7783 7.86819 14.6923 7.62861 14.6923H4.99997C3.8954 14.6923 2.99997 13.7969 2.99997 12.6923V11.3077Z" stroke="white" stroke-width="1.2" stroke-linecap="round" stroke-linejoin="round"/>
<path d="M16 14.5L18.5 12M18.5 12L21 9.49999M18.5 12L21 14.5M18.5 12L16 9.49999" stroke="white" stroke-width="1.2" stroke-linecap="round" stroke-linejoin="round"/>
</svg>
