<svg width="24" height="24" viewBox="0 0 24 24" fill="none" xmlns="http://www.w3.org/2000/svg">
<path d="M16.3495 8.7624C17.3497 9.48951 18 10.6688 18 12C18 13.3312 17.3497 14.5105 16.3495 15.2376M18.5 6.63788C20.0285 7.92195 21 9.84751 21 12C21 14.1525 20.0285 16.078 18.5 17.3621M8.28135 14.9347L11.3473 17.5761C11.9955 18.1345 13 17.6741 13 16.8185V7.18147C13 6.32593 11.9955 5.86544 11.3473 6.42386L8.28135 9.06529C8.09984 9.22167 7.86822 9.30768 7.62864 9.30768H5C3.89543 9.30768 3 10.2031 3 11.3077V12.6923C3 13.7969 3.89543 14.6923 5 14.6923H7.62864C7.86822 14.6923 8.09984 14.7783 8.28135 14.9347Z" stroke="white" stroke-width="1.2" stroke-linecap="round" stroke-linejoin="round"/>
</svg>
